<?xml version="1.0" encoding="UTF-8"?>
<svg version="1.1" viewBox="0 0 2048 576" width="1280" height="1280" xmlns="http://www.w3.org/2000/svg">
<path transform="translate(16,15)" d="m0 0 8 2 28 1h1980l1 1 1 7v533l-1 1h-2014l-1-3v-539l-9 2v-2zm40 41v467h1939l1-1v-466z" fill="#FDFDFC"/>
<path transform="translate(113,116)" d="m0 0h93l21 3 16 5 12 6 9 7 8 8 8 13 6 16 4 20 1 10v164l-3 22-4 15-6 15-7 11-11 12-11 7-13 6-16 4-16 2h-91zm49 35-1 44v232l5 1 38-1 12-3 9-5 7-7 6-12 3-16 1-12v-170l-3-21-5-12-7-8-8-5-16-4z" fill="#FDFCFB"/>
<path transform="translate(1364,116)" d="m0 0h48l1 149h88v-127l1-22h48v346h-48l-1-9v-153l-88 1v160l-1 1h-48z" fill="#FDFCFC"/>
<path transform="translate(1790,116)" d="m0 0h45l1 1v109l-1 8 8-7 10-8 10-5 7-2h24l11 4 9 6 8 9 6 10 6 18 3 15 2 26v69l-1 20-4 25-6 18-6 11-8 10-10 7-11 4-5 1h-20l-11-4-11-7-11-9 1 9v7l-1 1h-45zm72 131-13 4-11 6-2 2-1 159 5 4 13 6 12 2 11-1 6-4 4-5 4-10 2-12 1-16v-90l-2-20-4-13-6-8-10-4z" fill="#FDFCFB"/>
<path transform="translate(742,113)" d="m0 0h28l17 3 13 5 10 6 10 9 8 11 7 15 5 17 3 17v6l-24 7-17 4-4-25-5-16-6-9-1-3-4-2-6-4-11-3h-19l-11 4-6 4-6 7-4 12v21l3 12 6 10 9 10 7 7 8 7 14 12 10 9 8 7 14 12 12 11 10 11 13 18 8 15 5 16 3 20v15l-3 18-6 16-8 12-9 10-10 7-12 6-19 5-8 1h-18l-18-3-14-5-12-7-12-11-8-10-8-15-6-18-3-15-1-8v-9l24-7 15-4h3l1 2 3 21 5 19 8 16 5 6 10 6 5 2 6 1h13l12-3 9-6 4-5 4-9 2-11v-13l-3-16-8-16-9-10-7-8-15-14-8-7-14-12-12-11-11-9-17-16-10-12-8-15-4-13-2-11v-33l4-17 8-16 8-10 10-8 16-8 14-4z" fill="#FDFCFB"/>
<path transform="translate(884,115)" d="m0 0h44l1 1v204h2l2-5 15-24 12-19 15-24 13-21 8-12h48l-8 14-17 28-19 32-13 21 1 6 26 70 28 74v2h-45l-4-8-20-55-21-57-2-5-8 11-9 14-3 5-1 94-45 1-1-1v-345z" fill="#FDFCFB"/>
<path transform="translate(1599,215)" d="m0 0h45l1 5 1 193 4 11 6 4 11 1 10-3 11-6 7-5 1-199 1-1h45v247h-45l-1-1v-21l-4 2-13 10-12 7-15 5-5 1h-20l-10-4-7-6-6-10-4-13-1-6z" fill="#FDFCFB"/>
<path transform="translate(387,212)" d="m0 0h33l16 4 11 6 8 7 8 12 6 18 3 20 1 10 1 34v16l-97 1v60l2 12 4 9 5 6 7 3 13 1 9-3 5-5 4-9 2-15 1-23h44v24l-3 17-5 15-7 12-7 8-14 8-14 4-7 1h-27l-15-3-12-5-10-8-6-7-6-10-5-15-3-16-2-25v-77l2-23 4-19 5-14 9-13 9-8 12-6zm11 33-9 3-6 5-4 9-2 10-1 12v31h52l1-1v-30l-2-21-4-9-4-5-6-3-5-1z" fill="#FDFCFB"/>
<path transform="translate(499,215)" d="m0 0h46l13 83 17 112 11-69 17-110 3-16h44l-1 11-14 73-21 110-10 52-1 1h-56l-20-100-24-122-4-21z" fill="#FDFCFB"/>
<path transform="translate(1267,116)" d="m0 0h45v346h-45l-1-1v-344z" fill="#FDFDFC"/>
<path transform="translate(1169,116)" d="m0 0h45v346h-45l-1-3v-342z" fill="#FDFCFC"/>
<path transform="translate(1069,215)" d="m0 0h46v246l-1 1h-45z" fill="#FDFBFB"/>
<path transform="translate(1070,130)" d="m0 0h45v48h-46v-47z" fill="#FDFBFB"/>
<path transform="translate(16,15)" d="m0 0 8 2 28 1v1h-33v538h-1v-539l-9 2v-2z" fill="#FBDCD2"/>
<path transform="translate(429,376)" d="m0 0h44v24h-1v-23l-12 1-29 1-1 22-1 7h-1z" fill="#FBDCD2"/>
<path transform="translate(1040,457)" d="m0 0 2 3v2h-45v-1l42-1z" fill="#FBDCD2"/>
<path transform="translate(705,126)" d="m0 0 2 1-12 11-6 5 2-4 4-5z" fill="#FBE5DE"/>
<path transform="translate(30,7)" d="m0 0 2 1h-3z" fill="#FBDCD2"/>
<path transform="translate(21,14)" d="m0 0" fill="#FBDCD2"/>
</svg>
