<?xml version="1.0" encoding="UTF-8"?>
<svg version="1.1" viewBox="0 0 800 800" width="1280" height="1280" xmlns="http://www.w3.org/2000/svg">
<path transform="translate(0)" d="m0 0h800v800h-800z" fill="#6323BF"/>
<path transform="translate(445,379)" d="m0 0h12l12 3 11 7 1 3 3 1 7 12 3 10v13l-4 13-7 11-9 7-9 4-5 1h-18l-13-4-9-7-7-10-4-10-1-5v-12l4-13 6-9 7-7 9-5 5-2z" fill="#FBFBFD"/>
<path transform="translate(386,335)" d="m0 0h6l2 2 1 21 186-1h120l3 1 1 8-1 2-3 1-306 1v39l-1 51-3 2h-6l-2-2-1-13 1-78h-10l-12-1-1-2v-6l2-2h21v-21z" fill="#FBFBFD"/>
<path transform="translate(226,379)" d="m0 0h11l13 3 11 7 7 9 4 8 2 6v9l-1 1-8 1-64 1 1 8 6 12 9 7 9 3h11l13-5 10-9 3-3 6 1v7l-7 9-10 7-9 3-15 1-14-3-11-7-8-10-4-9-2-10 1-14 4-11 7-10 9-7 9-4z" fill="#FBFBFD"/>
<path transform="translate(123,389)" d="m0 0h11l11 4 9 8 6 12 1 4v10l-3 10-4 6-5 5-8 5-7 2h-11l-11-4-10-9-4-6-2-6v-16l4-9 4-6 9-7z" fill="#6323BF"/>
<path transform="translate(162,350)" d="m0 0h8l1 5v102l-2 5h-7l-2-2-2-5-6 2-12 6-10 2-12-1-11-4-9-6-8-10-4-10-1-4v-15l4-13 8-11 9-7 10-4 5-1h12l13 4 10 5 3 1 1-37zm-39 39-10 3-9 7-6 9-2 6v16l4 9 7 8 9 6 7 2h11l11-4 7-5 6-9 3-10v-10l-4-11-6-8-8-6-9-3z" fill="#FBFBFD"/>
<path transform="translate(510,381)" d="m0 0 5 1 5 8 12 28 7 14h4l7-14 11-24 5-12h3l3 4 8 18 10 23 4 5 4-1 10-21 8-18 5-9 2-2 6 1-1 9-11 26-13 30-8 16-3-3-16-35-6-12-5-1-8 16-15 34h-3l-7-14-18-42-7-17v-7z" fill="#FBFBFD"/>
<path transform="translate(444,392)" d="m0 0h13l11 4 6 5 4 6 3 10v9l-2 9-6 8-6 5-7 3-12 1-9-2-9-6-6-7-3-9v-13l4-10 5-6 10-6z" fill="#6323BF"/>
<path transform="translate(672,379)" d="m0 0h12l10 3 6 4 7 6 7 14 1 7v43l-2 6-5 1-4-4-1-49-4-9-9-8-8-2h-7l-10 3-6 5-4 7-1 5-1 49-3 3-5-1-2-4v-49l3-10 5-8 9-8 7-3z" fill="#FBFBFD"/>
<path transform="translate(292,381)" d="m0 0 4 1 5 8 11 23 8 17 5 3 4-5 8-18 13-26 2-2h6l2 2-1 5-9 21-7 16-8 16-9 21-3-1-8-16-13-27-13-29-1-7z" fill="#FBFBFD"/>
<path transform="translate(207,358)" d="m0 0h121l16 1 1 2v6l-1 1h-137l-2-2v-6z" fill="#FBFBFD"/>
<path transform="translate(225,389)" d="m0 0h12l11 4 8 6 6 12-1 2h-56l-2-1 1-6 6-8 7-6z" fill="#6323BF"/>
</svg>
