<?xml version="1.0" encoding="UTF-8"?>
<svg version="1.1" viewBox="0 0 2048 422" width="1280" height="1280" xmlns="http://www.w3.org/2000/svg">
<path transform="translate(981)" d="m0 0h12l11 10 1 2v62h992l10 1 7 6 3 7v8l-4 8-4 4-9 2h-994l-1 292-4 6-5 4-3 1h-12l-8-4-4-5-1-3v-291h-62l-7-4-5-8-1-7 2-7 7-8 4-2h61l1-62 7-8z" fill="#5F1DBF"/>
<path transform="translate(256,48)" d="m0 0h10l8 3 4 4v351l-5 6-5 2h-14l-7-6-5-14-4-4-4-1h-7l-8 5-10 7-14 8-19 7-22 5-7 1h-23l-27-6-19-7-17-10-13-11-10-9-9-11-7-9-10-17-5-13-6-25-1-5v-33l7-28 7-17 7-13 10-14 9-10 9-9 17-12 21-11 15-5 16-3 26-1 21 2 15 4 16 7 14 8 11 8 9 5 7-1 5-4 1-2 1-105 2-10 5-5zm-124 127-14 2-16 5-16 8-11 8-10 9-8 9-10 16-7 16-4 15-1 6v28l4 17 6 15 9 16 9 11 9 9 14 10 16 8 11 4 10 2 21 1 20-2 13-4 14-6 16-10 12-11 8-9 8-13 5-11 5-16 2-13v-20l-2-15-4-15-8-17-10-14-9-10-11-10-17-10-18-6-21-3z" fill="#0B59DC"/>
<path transform="translate(1570,149)" d="m0 0 4 2 8 16 13 28 30 67 17 38 6 12 6 4 9 1 8-4 5-8 17-39 14-32 13-30 14-32 8-16 6-5 7-1 8 2 5 4 3 6v8l-11 26-16 36-18 41-11 25-15 34-18 41-17 38-3 3-5-1-8-16-12-26-15-33-16-35-16-36-7-13-5-4-9-1-7 3-4 4-17 37-11 25-11 24-16 36-16 34-3 3-4-1-3-4-20-46-26-60-16-37-19-44-13-30-10-24v-6l5-8 5-4 9-1 7 3 5 6 6 12 16 38 19 44 18 42 7 16 4 3 8 3 7-1 6-4 7-14 18-41 18-40 18-41 11-24z" fill="#0B59DC"/>
<path transform="translate(1172,144)" d="m0 0h36l18 3 21 7 17 9 16 12 17 17 11 15 7 12 8 20 5 21 2 17v12l-3 22-5 18-9 21-11 17-13 15-10 9-15 11-16 8-18 6-29 6h-22l-33-7-19-7-15-9-11-9-10-9-11-12-10-15-8-16-6-16-4-17-2-15v-14l3-22 6-20 8-18 7-11 9-12 11-12 8-8 17-12 19-9 20-6zm14 40-16 2-16 5-16 8-14 11-11 11-9 14-7 15-5 20v23l3 15 4 12 7 14 12 16 10 10 14 9 16 7 11 3 7 1h26l13-2 15-5 17-9 13-11 11-14 8-14 6-16 3-16v-22l-3-15-6-16-6-11-9-12-7-7-15-11-16-8-16-5-19-2z" fill="#6120BF"/>
<path transform="translate(475,143)" d="m0 0 23 1 21 4 19 7 19 11 11 9 18 18 11 16 8 16 6 18 3 14 1 8v12l-6 7-4 1-220 1-5 3-3 5 1 13 4 16 9 19 8 11 11 12 15 11 16 8 10 3 22 2 20-1 17-4 21-8 15-10 10-9 10-12 7-9 7-4h8l8 4 5 9-1 9-9 14-8 10-12 12-14 10-19 10-15 5-23 5-12 2h-21l-31-6-15-5-16-8-13-9-13-12-11-13-12-19-8-18-6-21-2-14v-26l2-17 5-19 12-25 12-17 11-12 9-9 14-10 17-9 18-6 16-3zm-3 32-21 3-19 7-14 9-12 11-7 7-9 14-7 15 1 7 5 6 4 2h170l6-3 5-6-1-9-8-16-7-11-8-9-14-10-17-9-15-5-9-2-10-1z" fill="#0B59DC"/>
<path transform="translate(1931,143)" d="m0 0 19 1 19 5 19 9 17 12 14 14 11 15 9 19 5 15 4 16v154l-8 9-6 2h-8l-5-3-6-7-1-6-1-140-2-14-4-12-7-14-7-9-5-6-10-8-17-9-15-4-7-1h-16l-14 2-15 5-11 6-10 8-7 7-10 15-6 16-1 5-1 150-2 10-6 7-6 2h-8l-6-4-4-5-2-8v-144l3-21 6-18 10-19 10-13 11-11 17-12 16-8 20-6 6-1z" fill="#0B59DC"/>
<path transform="translate(674,150)" d="m0 0 9 1 5 3 4 5 15 31 13 28 14 30 19 41 11 23 5 5 3 1h11l5-3 5-6 11-24 12-26 13-28 15-33 17-37 6-8 3-2 8-1 9 3 5 5 2 4v8l-16 36-17 36-30 65-15 33-9 19-13 28-13 27-4 2-4-5-13-26-13-28-14-30-12-26-28-60-13-28-15-32-5-13 1-7 4-6 6-4z" fill="#0B59DC"/>
<path transform="translate(421,75)" d="m0 0h394l21 1 6 4 5 6 1 3v7l-6 9-7 3h-432l-6-3-4-5-2-5 1-9 6-8 4-2z" fill="#0B59DC"/>
</svg>
