<?xml version="1.0" encoding="UTF-8"?>
<svg version="1.1" viewBox="0 0 2632 856" width="1280" height="1280" xmlns="http://www.w3.org/2000/svg">
<path transform="translate(894,30)" d="m0 0h49l2 2v539l-1 1h-50l-1-64-14 15-15 14-16 12-13 8-17 9-22 8-20 5-22 3h-36l-25-4-24-7-18-8-15-8-12-8-16-13-13-12-10-11-10-13-10-15-12-23-8-22-5-22-3-20v-40l4-26 6-21 6-16 13-25 10-14 8-10 9-10 3-4h2l1-3 8-7 12-10 16-11 16-9 18-8 20-6 21-4 8-1h40l21 3 20 5 20 8 20 11 15 11 14 12 12 12 11 14 2 2zm-159 190-19 2-17 4-17 6-19 10-12 8-10 9-8 7-9 10-12 18-7 12-7 17-6 20-3 20-1 17 2 21 4 18 6 18 9 19 12 18 9 11 4 5 8 7 11 9 14 9 15 8 16 6 17 4 15 2h27l19-3 18-5 15-6 20-11 12-9 9-7v-2l4-2 11-12 12-18 10-21 5-16 4-20 1-12v-28l-3-21-6-21-7-17-8-14-12-16-13-14-11-9-13-9-14-8-21-8-18-4-17-2z" fill="#fff"/>
<path transform="translate(236,171)" d="m0 0h43l22 3 21 5 21 8 16 8 16 10 14 11 16 15 9 10 10 13 10 16 8 16 6 14 6 20 4 19 3 29v12l-1 1h-350l3 27 5 22 6 17 8 16 7 11 8 10 9 10 8 8 15 11 21 11 18 6 16 3 8 1h31l18-3 15-4 19-7 21-11 12-9 10-9 7-7 11-14 18-27h4l24 12 16 9-1 4-11 19-14 20-9 11-16 16-11 9-13 9-18 10-13 6-21 7-25 5-16 2h-41l-27-4-20-5-21-8-19-10-14-10-13-11-12-12-9-11-11-15-8-13-11-21-9-25-5-22-3-25v-25l3-26 5-22 9-25 12-23 9-14 9-12 12-14 10-10 8-7 18-13 18-10 19-8 21-6zm7 49-20 3-17 5-14 6-15 9-12 9-5 4-7 8-9 10-10 16-8 16-7 18-3 9v3l99 1h187l2-1-2-10-8-22-8-16-7-11-8-10-11-11-15-11-16-9-19-8-17-5-19-3z" fill="#fff"/>
<path transform="translate(2113,171)" d="m0 0h43l22 3 21 5 25 10 19 10 14 10 11 9 12 11 7 8 11 13 10 15 12 23 8 22 6 25 3 24 1 11v10l-2 1h-349l2 22 5 25 7 20 10 19 10 14 11 12v2l4 2 10 9 15 10 16 8 18 6 16 3 7 1h31l19-3 21-6 19-8 18-10 14-11 11-11 11-14 14-21 4-7 3-1 22 11 18 10 1 4-7 12-5 9-11 16-9 11-9 10-8 8-11 9-14 10-18 10-18 8-20 6-20 4-17 2h-41l-27-4-20-5-21-8-19-10-17-12-12-11-13-13-11-14-12-18-8-14-10-23-7-24-4-23-1-10v-31l3-24 5-21 6-18 9-20 10-17 10-14 9-11 9-10 12-12 20-15 18-10 18-8 20-6 22-4zm6 49-19 3-20 6-16 8-13 8-10 8-8 7-7 8-6 8-10 15-10 21-8 24 95 1h188l6-1-3-12-8-22-10-19-8-11-9-10-11-10-15-10-15-8-21-8-17-4-13-2z" fill="#fff"/>
<path transform="translate(1683,171)" d="m0 0h35l18 3 17 5 17 8 14 9 14 11 8 8 8 10 9 14 8 16 6 19 5 25 3 31 1 21v220l-1 1h-50l-1-65v-132l-1-41-2-25-3-16-7-21-8-15-8-10-9-9-13-8-14-6-17-4-11-1h-17l-18 2-18 5-17 8-12 8-9 7-10 9-10 11-9 13-8 14-8 21-4 17-3 30-1 15-1 192-1 1h-50l-1-1v-389l5-2 46 1 1 2v64l5-4 8-10 3-4h2v-2h2l2-4h2l2-4h2v-2l11-9 15-11 16-9 15-7 19-6 15-3z" fill="#fff"/>
<path transform="translate(1051,181)" d="m0 0h51l1 4v171l1 50 2 26 4 22 6 16 7 13 10 13 8 8 11 8 16 9 17 6 14 3 9 1h29l23-4 19-7 14-8 16-13 10-12 8-13 6-15 4-19 2-20 1-21 1-217 1-1h51l1 1v194l-2 44-3 24-5 25-8 24-10 19-11 15-9 10-8 8-15 11-14 8-18 8-23 6-18 3-10 1h-36l-23-3-14-3-21-7-20-10-16-12-10-9-8-8-13-18-7-12-6-15-5-15-5-24-3-23-2-29-1-57v-81z" fill="#fff"/>
<path transform="translate(2477,35)" d="m0 0 48 1 1 1v144h79l1 2v39l-3 3h-77v346l-1 1h-51l-1-98v-95l1-154h-67l-1-1-1-15v-26l1-2h68v-145z" fill="#fff"/>
<path transform="translate(2030,641)" d="m0 0 9 1 1 1v156l-5 2h-9l-3-1-1-9v-5l-7 6-14 8-7 2h-16l-11-4-8-6-7-9-6-16-1-6v-28l4-16 6-11 7-8 10-6 11-3h12l12 4 9 7 4 3v-60l1-1zm-44 65-7 3-6 5-5 10-3 14v16l2 12 6 12 5 5 5 2h13l10-5 10-9 4-5v-40l-4-6-8-8-9-5-4-1z" fill="#fff"/>
<path transform="translate(1617,689)" d="m0 0h17l13 3 9 5 9 8 6 10 4 13 1 7v19l-3 14-4 10-7 9-9 8-12 5-8 2h-21l-13-4-8-5-6-5-6-10-4-10-2-9v-25l5-17 7-11 8-8 12-6zm-1 17-9 4-7 7-4 8-2 7-1 15 2 16 4 10 7 8 9 4h18l10-5 8-9 3-10 1-7v-17l-2-12-4-8-5-6-7-4-4-1z" fill="#fff"/>
<path transform="translate(2357,689)" d="m0 0h15l14 3 11 6 7 7 6 10 4 13 1 6v21l-4 16-5 10-9 10-11 7-14 4h-20l-12-3-9-5-5-4-6-8-5-11-3-14v-21l4-16 5-10 9-10 9-6 11-4zm-2 17-9 4-8 9-4 10-2 14 1 14 3 12 6 9 6 5 6 2h18l10-5 5-5 4-7 2-6 1-7v-18l-2-12-4-8-5-6-8-4-3-1z" fill="#fff"/>
<path transform="translate(2104,689)" d="m0 0h18l11 3 9 5 7 9 3 9 1 10v73l-1 2-5 1h-7l-4-2-1-10-8 6-6 4-10 3h-17l-9-3-9-6-6-9-2-6v-14l3-9 8-9 12-6 12-3 12-1h18l-2-18-3-6v-2l-5-2-10-2-13 1-12 4-11 5-3-1-1-3v-9l5-5 10-5zm6 62-10 2-8 5-3 4-1 3v10l5 8 5 3 4 1h7l10-3 11-8 3-5v-20z" fill="#fff"/>
<path transform="translate(1705,691)" d="m0 0h16l2 1 1 68 2 11 4 8 3 3 5 2h11l10-5 10-9 2-2 1-5 1-71 1-1h18l1 2v105l-1 2-13 1-4-2-1-13-12 10-8 4-7 2h-16l-9-3-9-7-6-10-3-11-1-11v-62z" fill="#fff"/>
<path transform="translate(2489,689)" d="m0 0h13l10 3 9 6 6 8 4 10 1 8v75l-1 1-13 1-5-1-1-10-1-63-2-8-4-7-6-4-4-1h-7l-10 4-10 9-4 5-1 72-1 3-15 1-4-2v-107l1-1h16l1 2 1 12 11-9 12-6z" fill="#fff"/>
<path transform="translate(1873,689)" d="m0 0h14l10 3 6 4 8 9 4 10 1 5 1 19v60l-1 1-14 1-5-2-1-69-2-10-5-9-5-3-4-1h-7l-9 3-10 8-5 6-1 6-1 69-1 1-15 1-3-1v-109h16l1 1v14l14-11 10-5z" fill="#fff"/>
<path transform="translate(1544,640)" d="m0 0h13l8 2 4 3 1 10-2 5-6-1-2-1h-13l-5 3-3 8-2 22h24l3 2v10l-2 4-22 1-2 1-1 90-1 1-13 1-5-1-1-10v-80l1-2h-10l-7-1-1-1v-13l3-2h14l1-23 3-11 5-8 8-6z" fill="#fff"/>
<path transform="translate(2193,663)" d="m0 0h12l4 2v26h28l2 2v12l-1 2-26 1-2 2v57l2 11 2 4 5 2h9l10-2 2 4-1 10-4 4-7 2h-16l-9-3-7-6-4-8-2-8-1-28v-17l1-24h-12l-5-1-1-2v-12l3-2h14v-16l1-11z" fill="#fff"/>
<path transform="translate(2266,691)" d="m0 0h17l1 1v107l-1 1-15 1-3-1-1-3v-104z" fill="#fff"/>
<path transform="translate(2271,648)" d="m0 0 10 1 5 5v11l-3 5-6 2-10-1-4-4-1-3v-8l2-5z" fill="#fff"/>
</svg>
