<?xml version="1.0" encoding="UTF-8"?>
<svg version="1.1" viewBox="0 0 2048 665" width="1280" height="1280" xmlns="http://www.w3.org/2000/svg">
<path transform="translate(696,26)" d="m0 0h38v418l-7 1h-30l-1-2-1-49-8 8-7 8-14 12-15 10-16 8-16 6-17 4-14 2h-31l-18-3-15-4-21-9-16-10-11-9-12-11-12-13-9-13-9-16-8-19-6-25-1-8v-37l3-19 6-20 10-21 12-18 12-14 9-9 11-9 14-10 16-8 12-5 18-5 13-2h38l18 3 17 5 19 9 12 8 10 8 10 9 7 7 9 12h1zm-128 145-19 3-18 6-16 8-13 10-10 9-8 9-10 15-10 21-5 18-2 14v22l3 17 5 15 8 17 7 11 8 10 8 9 11 9 14 9 17 8 19 5 20 2 16-1 20-4 20-8 14-8 14-11 12-12 10-15 8-16 5-16 3-18v-30l-5-23-6-15-8-15-9-12-11-12-14-11-16-9-15-6-18-4-10-1z" fill="#1E2F60"/>
<path transform="translate(199,134)" d="m0 0 22 1 19 3 20 6 15 7 11 6 11 8 13 11 10 10 10 13 8 13 9 19 6 19 4 23 2 22-2 1h-273l2 12 5 25 5 15 7 14 10 14 11 12 14 11 21 11 14 4 13 2h29l20-4 17-6 16-8 14-10 11-11 10-13 8-12 3-5 5-1 27 14 1 4-8 15-10 14-9 11-12 12-12 9-18 11-19 8-24 6-16 2h-33l-27-4-24-8-19-10-14-11-16-16-13-17-10-17-9-21-4-13-4-22-1-21 2-25 5-21 6-16 8-16 10-16 8-10 11-12 7-7 17-13 19-10 17-6 18-4 7-1zm-10 37-17 3-18 6-15 8-13 10-11 11-7 10-8 14-8 19-3 8v3h227l-2-9-6-16-8-16-8-11-7-8-14-11-14-8-16-7-15-4-13-2z" fill="#1F3060"/>
<path transform="translate(1640,135)" d="m0 0h40l20 3 20 6 19 9 12 8 13 10 9 8 7 8 10 13 8 13 9 19 6 20 4 25 1 9v9l-3 1h-271l4 26 5 19 5 12 7 13 10 13 13 13 13 9 16 8 15 5 12 2 21 1 22-3 14-4 15-6 16-9 13-10 11-12 12-17 6-10 5 1 25 12 3 2-1 4-10 18-10 13-12 14-8 7-12 9-13 8-17 8-20 6-16 3-10 1h-33l-21-3-19-5-19-8-14-9-10-8-12-11-9-11-10-14-9-16-8-18-5-17-3-17-1-11v-19l2-20 6-23 7-17 10-19 8-11 8-10 11-12 12-10 15-10 16-8 18-6zm8 36-17 3-15 5-14 7-14 10-9 8-11 14-10 18-9 23v4l224 1 3-1-3-11-6-16-9-17-7-9-4-5-8-7-13-9-17-9-18-6-9-2-9-1z" fill="#841B13"/>
<path transform="translate(1307,135)" d="m0 0h32l16 3 16 6 14 8 9 7 10 9 9 11 9 16 6 17 4 21 2 18 1 18v175l-37 1-1-1-1-182-2-22-4-18-7-16-6-10-7-8-10-7-13-6-11-3-6-1h-28l-18 4-14 6-11 7-11 9-9 9-8 11-9 16-5 12-4 19-2 26-1 29-1 125-23 1h-14l-1-1v-301l1-1h37l1 53 7-7 7-8 14-14 13-10 14-8 13-6 17-5z" fill="#851D15"/>
<path transform="translate(819,142)" d="m0 0h20l18 1 1 167 1 21 3 19 4 13 8 15 9 11 11 9 14 8 17 6 12 2h28l16-3 13-5 13-7 13-11 10-13 6-12 4-16 2-15 1-15 1-174 1-1h23l15 1v167l-2 28-3 19-5 19-6 14-8 13-9 11-11 11-13 9-16 8-15 5-20 4-10 1h-31l-21-3-17-5-19-9-11-8-10-9-7-7-10-14-9-19-5-16-4-22-2-21-1-26v-150z" fill="#1F3060"/>
<path transform="translate(1926,30)" d="m0 0h38l1 1v111l61 1 1 1-1 30-26 1h-35v61l-1 208-38 1-1-2v-268h-53l-1-3 1-30h17l36 1v-112z" fill="#841F18"/>
<path transform="translate(1572,500)" d="m0 0h13l1 1v119l-1 2h-9l-2-6-1-6-12 9-7 3-13 1-9-2-6-4-6-7-5-11-2-11v-16l3-13 5-10 8-8 8-4 5-1h9l11 4 9 7zm-26 48-7 3-7 8-4 12v20l4 10 4 6 5 4 3 1h8l10-5 7-6 3-6v-30l-4-6-9-8-8-3z" fill="#7A7B7A"/>
<path transform="translate(1254,537)" d="m0 0h22l11 4 6 5 6 9 4 12v24l-3 10-6 9-7 7-12 5-7 1h-12l-10-2-8-5-7-7-5-11-2-9v-16l3-12 5-10 7-8 10-5zm4 11-8 3-6 7-4 9-1 4v20l3 9 6 7 7 4 4 1h9l8-3 7-6 4-8 1-4v-23l-4-10-5-6-8-4z" fill="#797A7A"/>
<path transform="translate(1836,536)" d="m0 0 15 1 10 4 9 8 6 12 2 8v18l-3 12-4 8-8 9-10 5-10 2h-11l-11-2-10-6-8-11-3-9-1-5v-18l3-12 5-10 7-7 10-5zm-2 12-9 3-7 8-4 11-1 7v10l2 8 5 9 6 5 8 3h10l10-5 6-7 3-12v-19l-4-11-4-5-7-4-4-1z" fill="#787979"/>
<path transform="translate(1637,536)" d="m0 0h11l12 3 8 5 5 10 1 7v53l-1 8h-9l-2-8-14 7-3 1h-20l-6-3-7-7-3-8v-11l4-8 7-6 10-4 17-2 12-1v-10l-3-8-4-4-3-1h-14l-10 3-9 3-4-1-1-3 4-6 5-4 12-4zm2 47-10 3-6 8v7l4 8 7 4h8l9-4 8-7 1-2v-14l-1-3z" fill="#75777A"/>
<path transform="translate(1460,536)" d="m0 0 12 1 8 4 6 7 4 11 1 15v46l-2 2h-11l-2-3-1-57-4-8-5-4-7-1-8 2-6 4-7 8-1 3-1 55-1 1h-11l-1-1-1-7v-74l1-2 9-1 2 2 1 10h2l8-7 10-5z" fill="#777877"/>
<path transform="translate(1326,538)" d="m0 0h11l3 1 1 55 2 9 4 5 8 3 9-2 10-6 4-5 1-3v-56l1-1h13l1 1v52l-1 31h-10l-2-12-8 6-8 5-10 2-11-1-8-4-6-7-4-11-1-8v-53z" fill="#747676"/>
<path transform="translate(1905,537)" d="m0 0h6l2 6 1 8 8-8 12-6h16l8 4 7 8 3 7 1 5v60l-1 1h-11l-2-2-1-52-2-10-4-6-5-3h-9l-10 5-7 8-1 2-1 57-1 1h-12l-1-2v-81z" fill="#737473"/>
<path transform="translate(1202,499)" d="m0 0h9l8 2 2 4-1 7-7-1h-11l-4 3-2 11-1 13h20l1 1v9l-1 1-19 1-1 72h-11l-3-2v-70h-9l-5-2v-7l3-2h11v-17l3-12 7-8 5-2z" fill="#737474"/>
<path transform="translate(1705,517)" d="m0 0h12l1 1v20h23v11l-7 1h-16l1 51 2 7 7 3 6-1 7-1v9l-2 3-3 1h-19l-6-3-5-8-2-10v-52h-13l-1-1v-9l14-1v-20z" fill="#777877"/>
<path transform="translate(1427,537)" d="m0 0h5l2 2 1 10h2l4-4 7-3 11-1-3 2-5 1h12l3 3-4-1h-9l-6 3 2 3-8 7-3 4-1 3-1 55-1 1h-11l-1-1-1-7v-74l1-2z" fill="#858685"/>
<path transform="translate(1380,538)" d="m0 0h13l1 1v52l-1 31h-10l-2-12-3 2-8 1-10 1 1-2 8-3 4-3 3-5 3-6v-56z" fill="#848584"/>
<path transform="translate(1905,537)" d="m0 0h6l2 6 1 13 4-3h2l6-3v3l-6 5-4 6-1 57-1 1h-12l-1-2v-81z" fill="#7B7C7C"/>
<path transform="translate(1763,538)" d="m0 0h13l1 4-1 79-1 1h-11l-2-2v-81z" fill="#6A6C6D"/>
<path transform="translate(1618,580)" d="m0 0 2 1-4 5 5-2 27-3h10l1 2-20 1-10 3-5 7v7l4 8 6 3h8l9-4 6-4 1 4-4 4-1 7-8 3h-20l-6-3-7-7-3-8v-11l4-8z" fill="#939495"/>
<path transform="translate(1766,505)" d="m0 0h8l3 2v12l-6 3-8-1-3-4 1-9z" fill="#A5A6A5"/>
<path transform="translate(1836,536)" d="m0 0 11 1v2l8 1 9 6 8 9 3 7v29h-1l-2-29-5-10-7-6-5-3-4-1h-26l-5 1v-2h2v-2l6-2z" fill="#293861"/>
<path transform="translate(1925,550)" d="m0 0 2 2-7 6-4 6-1 57-4 1 1-47 1-10 6-9 4-5z" fill="#FEFEFE"/>
<path transform="translate(1929,541)" d="m0 0h8l4 1 5 1v3l-3 1-7-2v2h-5v3l-8 2-5 3h-2l-3 2 1-5 10-8z" fill="#3A4768"/>
<path transform="translate(1446,550)" d="m0 0 3 1-5 5-6 7-1 3-1 55-4 1 1-3 1-44 2-13 6-8z" fill="#FEFEFE"/>
<path transform="translate(1643,577)" d="m0 0h12v1l-29 3 15-1 17-1 1 2-32 3-10 2-3 2 2-4 4-4 6-2z" fill="#263661"/>
<path transform="translate(1847,537)" d="m0 0 7 1 10 5 8 9 5 12 1 5v18l-1 6h-1l-1-24-2-10-6-9-8-7-7-3-5-1z" fill="#FEFEFE"/>
<path transform="translate(1453,541)" d="m0 0h6l-3 2-5 1h12l3 3-4-1h-9l-6 3-6 7h-2v-3l-5 5 2-6 3-3 2-4 7-3z" fill="#2E3D66"/>
<path transform="translate(1656,604)" d="m0 0 2 4-4 4-1 7-8 3-4-1 1-6h3v-3l4-3 6-4z" fill="#989A9D"/>
<path transform="translate(1541,538)" d="m0 0 13 1 10 4 7 6-1 3-7-6h-4l-7-3v-2l-16 1-7 2 2-3z" fill="#354263"/>
<path transform="translate(1254,537)" d="m0 0h22l11 4 2 3-5-2-12-3-19 1-9 3-10 9-4 4 2-5 7-8 10-5z" fill="#FEFEFE"/>
<path transform="translate(1766,505)" d="m0 0h8l3 2v4h-5l-2 1-6-1-2 1-1 4h3l1 5-4-2-1-2 1-9z" fill="#F8F8F8"/>
<path transform="translate(1529,595)" d="m0 0 3 4 5 8 7 4h8l10-5 3-3 2 1-9 8-7 2h-9l-6-4-4-5-3-7z" fill="#FEFEFE"/>
<path transform="translate(1542,536)" d="m0 0h9l11 4 9 7 2-4v6h-3l-8-6-8-3-13-1-6 2-4-1 6-3z" fill="#FAFAFA"/>
<path transform="translate(1286,595)" d="m0 0 1 4-4 8-6 5-4 1h-16l-6-3 2-1 6 2h9l8-3 6-5z" fill="#FEFEFE"/>
<path transform="translate(1249,540)" d="m0 0h20l8 4-2 1h-3l-11-2h-12l-8 3v-2z" fill="#293861"/>
<path transform="translate(1929,541)" d="m0 0h8l4 1 5 1v3l-3 1-7-2v2l-5-1-4-2z" fill="#555B69"/>
<path transform="translate(1836,536)" d="m0 0 11 1v2h5v1h-30l2-2z" fill="#959595"/>
<path transform="translate(1453,545)" d="m0 0h9l4 2v2l-13 1-5 1-2-2z" fill="#939393"/>
<path transform="translate(1570,600)" d="m0 0 3 1-2 5h-3l-4 3v3l-5 1-9 3h-5l4-2 9-3 11-9z" fill="#323F63"/>
<path transform="translate(1764,510)" d="m0 0 6 1v2h-2l1 6-4 2-1-5h-3l1-5z" fill="#444E66"/>
<path transform="translate(1613,547)" d="m0 0h2v3h2l1-2 1 4 4-3 2 1v2l-9 3-4-1-1-3z" fill="#CECECF"/>
<path transform="translate(1372,604)" d="m0 0h2l-1 3-8 5-4 1h-9l-7-3 4-1 9 2 10-4z" fill="#FEFEFE"/>
<path transform="translate(1934,537)" d="m0 0h6l-1 2-7 1-5 4-6 3-5 5-2-1 8-8z" fill="#E7E7E7"/>
<path transform="translate(1376,603)" d="m0 0h1l-1 7-4-2v4l-8 2-4-1 10-5z" fill="#2B3A62"/>
<path transform="translate(1541,538)" d="m0 0 10 1 1 2-16 1-7 2 2-3z" fill="#293861"/>
<path transform="translate(1284,542)" d="m0 0 7 2 8 11-1 3-2-4-5-5-6-4z" fill="#8990A3"/>
<path transform="translate(1660,541)" d="m0 0 5 1 5 5 2 5h-4l-4-6z" fill="#888FA1"/>
<path transform="translate(1851,540)" d="m0 0 6 1 8 6 4 5-4-2-10-7-4-1z" fill="#313E63"/>
<path transform="translate(1642,612)" d="m0 0h5v3l-3 2v-2h-2v6l-4 1 2-5-1-4z" fill="#505768"/>
<path transform="translate(1630,575)" d="m0 0 10 1v1l-14 2-6 1 4-3z" fill="#F5F5F5"/>
<path transform="translate(1936,545)" d="m0 0 7 1 4 4-4-1h-11l-3-2 4-1 3 1z" fill="#F5F5F5"/>
<path transform="translate(1728,613)" d="m0 0h13v4h-8l1-2-6-1z" fill="#313E63"/>
<path transform="translate(1620,580)" d="m0 0 5 1v2h-4v2l-5 2-2 1 2-4z" fill="#4B5367"/>
<path transform="translate(1560,542)" d="m0 0 5 2 6 5-1 3-7-6-3-2z" fill="#2F3C62"/>
<path transform="translate(1772,510)" d="m0 0 5 1v5l-6-1z" fill="#2C3B62"/>
<path transform="translate(1736,609)" d="m0 0h5v4l-9-1z" fill="#DADBDD"/>
<path transform="translate(1656,604)" d="m0 0 2 4-4 3h-6l3-3z" fill="#F8F8F8"/>
<path transform="translate(1941,542)" d="m0 0 5 1v3l-3 1-7-3v-1z" fill="#2A3961"/>
</svg>
