<?xml version="1.0" encoding="UTF-8"?>
<svg version="1.1" viewBox="0 0 2048 839" width="1280" height="1280" xmlns="http://www.w3.org/2000/svg">
<path transform="translate(149)" d="m0 0h135v132l-1 2h-14l-3-4-9-30-9-22-8-16-8-12-8-10-10-10-14-8-12-4-7-1h-11l-14 3-10 5-12 11-9 12-7 14-6 19-4 18-5 37-2 26-1 31v48l1 44 2 30 4 35 4 18 5 12 8 11 8 7 14 6 12 1 13-2 12-5 9-8 6-12 4-16 2-14v-94l-3-14-6-11-7-6-11-4-18-3-3-3-1-11 1-4 129-1 3 1 1 334-4 4h-10l-4-4-7-22-8-23-8-16-7-12-8-10-8-8-14-9-14-5-13-2h-17l-11 2-11 4-11 7-9 9-8 16-3 14v10l2 14 6 15 9 12 12 10 19 12 28 15 29 16 24 14 16 11 13 11 9 9 11 15 9 19 4 14 3 21v15l-3 21-5 17-8 17-9 13-12 14-12 10-14 9-16 8-13 5-15 4-19 3-11 1h-135l-1-1v-147l1-14 4-1h7l5 2 3 13 9 34 9 24 9 19 8 12 8 10 6 7 10 8 14 8 16 5 18 2 17-2 15-5 11-7 8-8 6-10 5-15 2-14v-10l-3-18-7-17-9-13-9-9-18-13-17-10-28-15-24-14-18-11-14-10-11-9-14-14-7-11-7-15-3-11-2-16v-17l3-19 6-16 9-15 12-14 8-8 15-11 16-9 15-6 7-3-19-5-18-6-19-10-14-11-13-13-11-15-9-16-7-16-7-22-6-29-3-18v-79l10-43 7-20 8-18 11-20 10-14 9-11 17-17 14-10 17-10 17-7z" fill="#67A6F7"/>
<path transform="translate(884,448)" d="m0 0h81v89l10-9 15-10 15-6 14-3h27l16 4 16 8 12 11 9 13 7 16 4 16 1 11v244h-81l-2-4-1-264-3-12-5-8-6-5-3-1h-14l-9 4-9 7-8 13-3 10-1 10-1 250-76 1-4-1-1-5v-66l1-8h-2l-2 5-11 18-9 11-9 10-12 11-15 11-19 10-20 6-10 2h-26l-26-5-17-5-16-8-11-7-12-11-8-8-11-16-8-16-7-19-5-23-3-23v-36l4-30 6-23 6-15 11-21 8-11 9-11 10-10 14-10 14-8 16-7 17-4 11-1h16l17 2 18 6 12 7 11 11 7 11 5 14 2 13-1 16-4 11-6 9-4 5-10 6-14 4h-17l-13-4-8-6-6-7-4-9-1-4v-16l5-12 10-13 8-11 1-5-3-5-6-4-4-1h-12l-11 4-8 7-8 14-6 21-3 19-3 46v67l4 44 5 26 5 15 7 12 8 7 12 6 11 2h17l14-3 11-5 12-7 9-7 10-9 12-14 10-16 8-16 6-14 6-21 3-18 1-10z" fill="#67A6F7"/>
<path transform="translate(1236,65)" d="m0 0h11l17 2 14 5 10 6 8 7 7 10 7 13 4-5 6-9 4-5 11-9 13-8 14-5 6-1h29l16 4 10 4 13 9 8 8 9 14 6 15 4 19 1 17v232l-3 1h-78l-1-258-2-14-5-12-7-8-7-3h-8l-10 3-9 7-6 8-5 11-2 10-1 42v213l-2 1h-79l-1-1-1-270-3-10-6-9-6-4-3-1h-9l-11 4-9 7-7 11-3 8-1 6-1 31v227l-4 1h-77l-1-1v-314l1-1h73l1 2-1 29 9-10 7-8 13-10 15-7 12-3z" fill="#67A6F7"/>
<path transform="translate(942,7)" d="m0 0h76l1 1v380l-2 1h-75l-1-1v-13l1-13-5 5-12 13-11 7-14 5-11 2h-15l-13-2-14-5-12-7-13-11-10-12-9-15-8-18-6-18-6-26-3-24-1-19v-11l2-27 4-24 6-21 8-20 8-15 10-14 11-12 9-8 13-8 11-5 13-3 9-1h12l12 2 9 4 11 8 8 10h1v-83zm-49 80-6 4-7 7-6 13-4 15-4 22-2 23-1 22v87l1 28 2 21 4 16 5 13 6 8 11 6 8 1 11-4 10-9 6-10 5-14 3-14 2-16 1-15v-115l-2-31-4-23-5-15-7-10-8-7-7-3z" fill="#67A6F7"/>
<path transform="translate(1952,66)" d="m0 0h30l13 3 14 6 12 9 9 10 8 14 6 16 4 13v252l-51 1h-28l-4-1-1-2-1-269-3-10-6-9-6-4-4-1h-9l-11 3-9 7-8 13-4 13-1 15-1 243-2 1h-78l-1-1v-315h76l1 31 13-16 9-8 16-9 12-4z" fill="#67A6F7"/>
<path transform="translate(1625,66)" d="m0 0h38l20 4 16 6 15 8 9 7 8 8 8 14 5 17 1 9v249l-3 1h-74l-2-4 1-13v-12h-2l-9 12-7 8-13 8-18 6-13 2h-19l-16-3-12-5-11-7-8-7-9-12-7-15-4-15-2-17v-11l2-19 5-16 8-15 12-13 11-9 19-11 29-13 26-11 19-9 10-7 2-4 1-7v-65l-4-10-4-5-12-6h-18l-11 4-7 5-4 7v6l8 11 7 11 2 7v13l-3 9-7 11-8 6-10 4-11 2-16-1-10-3-8-5-8-9-4-10-1-4v-17l5-14 7-12 9-10 12-9 16-9 13-5 23-5zm34 136-10 6-19 13-10 9-7 10-5 11-4 17-2 16v55l3 14 6 10 8 5 10 2 9-3 8-7 6-9 6-16 3-16 1-16v-101z" fill="#67A6F7"/>
<path transform="translate(462,509)" d="m0 0h27l17 2 19 5 16 8 10 8 9 10 8 16 3 12 1 14v248h-75l-1-2v-11l1-16-6 5-7 8-9 8-8 5-15 5-20 3h-16l-20-4-13-5-9-6-7-6-9-13-5-11-4-15-2-13v-23l4-22 7-16 8-11 8-9 14-10 14-8 27-13 25-11 16-8 13-7 6-5 1-2v-73l-3-8-6-7-9-4-13-1-13 2-10 5-5 7v9l6 9 7 10 4 11v9l-4 13-7 9-8 6-9 4-14 3-13-1-13-5-10-9-4-6-4-11-1-11 2-12 5-12 8-11 10-10 14-9 16-8 17-5 17-3zm28 133-13 8-17 12-10 9-6 8-7 14-3 13-3 29v34l2 24 3 10 5 5 5 3h13l10-5 6-5 7-11 5-12 3-14 1-9 1-112z" fill="#67A6F7"/>
<path transform="translate(450,66)" d="m0 0h25l16 3 14 5 13 7 14 10 13 12 10 11 12 19 8 17 6 18 5 23 3 25v32l-4 30-6 23-8 20-8 15-9 13-11 12-10 9-14 10-16 8-14 5-17 3h-19l-16-3-16-6-16-9-13-10-6-5-7-8-9-11-8-13-8-16-8-21-5-21-3-19v-44l4-24 6-23 10-24 9-16 8-11 9-11 10-9 14-10 14-8 13-5zm9 16-10 3-8 6-6 9-6 16-3 19-2 25-1 32v80l1 32 3 30 4 18 5 12 7 9 10 5 4 1h14l11-4 8-7 6-12 3-12 3-28 1-24v-146l-2-23-4-16-6-11-5-6-10-6-8-2z" fill="#67A6F7"/>
<path transform="translate(1271,509)" d="m0 0h87l2 1v83l-7 2h-6l-5-4-8-22-10-19-11-12-14-8-12-3h-21l-12 5-9 6-7 10-3 9-1 9 2 11 8 16 12 12 18 12 50 28 18 12 11 9 7 7 9 13 6 14 3 12 1 10v14l-2 18-6 18-7 13-10 13-7 7-14 10-16 8-15 5-15 3-10 1h-102v-117l1-1h13l3 2 9 34 8 21 8 15 9 11 8 7 16 8 12 3h13l12-3 14-7 8-9 5-12 2-12-1-16-5-14-7-11-11-11-18-13-24-15-21-13-20-14-13-11-7-7-9-14-5-11-3-13v-17l4-20 7-16 7-11 9-10 10-8 10-6 13-6 18-4z" fill="#67A6F7"/>
<path transform="translate(652,7)" d="m0 0h73l1 1v380l-3 1h-80l-1-1v-361l1-19z" fill="#67A6F7"/>
</svg>
