<?xml version="1.0" encoding="UTF-8"?>
<svg version="1.1" viewBox="0 0 2000 2000" width="1280" height="1280" xmlns="http://www.w3.org/2000/svg">
<path transform="translate(1102,451)" d="m0 0h10l8 4 5 8 5 17 9 35 21 81 12 44 11 42 23 88 11 41 15 57 8 30 13 51 3 11 3-1 32-64 11-23 14-29 5-14 8-7 2-1h10l8 3 4 5 9 21 17 43 14 34 17 43v2h119l5 3 2 5v10l-5 6-4 2-99 1h-31l-10-1-7-8-6-12-34-85-4-7-4 6-11 24-8 16-8 17-9 17-11 23-14 30-6 9-7 4-14-1-6-4-4-9-5-17-12-48-17-64-20-76-9-34-11-42-12-45-7-27-15-57-11-42-6-21v-3h-2l-3 15-13 55-16 68-18 75-15 65-18 75-19 81-15 63-22 93-10 44-7 29-10 42-18 76-11 47-4 8-5 5-2 1h-11l-7-4-5-5-3-11-8-36-11-50-20-90-19-86-14-64-9-40-16-73-10-45h-3l-9 14-10 14-8 12-17 25-12 18-8 7-5 2-9-1-9-6-9-11-10-13-12-16-10-13-11-14-5-5-101-1-5-5-2-4v-7l4-7 3-3h121l7 3 9 9 14 19 14 18 5 8 2 1 2-5 12-16 16-23 16-24 17-25 9-10 6-4h7l9 3 6 7 4 12 9 41 14 64 9 40 14 64 19 85 12 54 6 28 14 63 3 3 4-18 15-63 7-30 7-29 14-60 17-72 22-94 11-46 19-80 17-72 13-56 13-54 18-76 11-48 5-22 6-7z" fill="#FDFEFD"/>
<path transform="translate(1502,1067)" d="m0 0h11l8 3 2 4v291l-4 8-5 3-10 2h-17l-10-3-10-9-10-15-12-22-13-23-10-19-12-21-14-26-8-14-15-27-16-29-9-16-12-22-7-14-2-1 1 2 1 70 1 9-1 10v119l-1 48-4 2h-28l-6-3-1-9v-283l2-7 5-4 10-3h26l13 4 8 8 12 20 14 26 15 27 14 25 16 29 12 22 13 23 15 29 12 22 7 13 1-245 3-3z" fill="#FDFEFD"/>
<path transform="translate(1098,1066)" d="m0 0h21l10 2 5 5 10 26 18 50 12 34 16 44 7 19 15 42 17 47 10 27 1 4v9l-6 2h-33l-4-4-15-42-12-35-129-1-1 7-17 50-6 18-7 6-8 2-22-1-4-2-2-4 2-9 13-36 11-31 18-50 16-44 11-31 20-55 14-39 4-7 6-2zm6 45-17 48-11 33-17 48-6 19 1 3h104l-1-6-12-36-9-26-10-28-20-55z" fill="#FEFEFE"/>
<path transform="translate(601,1064)" d="m0 0h34l3 1v245l-2 17-6 18-6 10-6 7-10 7-11 5-14 3-13 1-20-2-12-4-8-5-4-5-2-6v-13l2-10 2-3 8 1 14 7 9 2h17l8-3 6-7 4-9 1-6 1-31 1-217z" fill="#FEFEFE"/>
<path transform="translate(726,1064)" d="m0 0h28l6 2v305l-9 3h-22l-9-3-1-23v-281l2-2z" fill="#FEFEFE"/>
<path transform="translate(1102,451)" d="m0 0h10l8 4 5 8 5 17 9 35 21 81 12 44 11 42 23 88 11 41 15 57 8 30 13 51 3 11 2 2-3 1-4-8-7-24-7-30-6-19-6-26-2-5-4-16-6-23-3-9-5-21-5-18-4-16-4-15-3-12-5-18-4-16-4-15-7-27-8-32-2-7-3-10-3-12-6-21-2-10-2-4-2-12-2-3-4-16-2-13-5-15-2-8-2-7-3-12-4-5-6-3h-8l-8 4-3 4-3 10-6 31-5 18-4 16-10 42-6 26-12 50-8 34-3 15-10 40-9 40-7 29-10 43-4 18-4 15-10 43-2 8-7 30-4 18-3 13-5 21-3 12-6 26-4 15-8 35-6 24-5 22-6 25-7 30-5 22-3 15-4 15-5 16-2 4h-4l-3-10-4-15-2-5-6-32-6-24-2-12-4-16-3-13-1-10-2-5-2-11-3-9-2-10-6-27-3-14-5-24-6-24-4-19-6-27-2-11-3-15-2-5-3-17-4-18-3-15-2-7-2-10-2-5-3-17-5-21v-6h-3l-2-5-5-3-12-1-5 3-11 14-7 11-10 15-7 10-10 15-7 10-10 15-3 3-5 7h-2l2-5 12-16 16-23 16-24 17-25 9-10 6-4h7l9 3 6 7 4 12 9 41 14 64 9 40 14 64 19 85 12 54 6 28 14 63 3 3 4-18 15-63 7-30 7-29 14-60 17-72 22-94 11-46 19-80 17-72 13-56 13-54 18-76 11-48 5-22 6-7z" fill="#D1FEFD"/>
<path transform="translate(1098,1066)" d="m0 0h21l10 2 5 5 10 26 18 50 12 34 16 44 7 19 15 42 17 47 10 27 1 4v9l-6 2h-33l-4-4-15-42-12-35-129-1-1 7-17 50-6 18-7 6-8 2-22-1-4-2-2-4 2-9 13-36 11-31 18-50 16-44 11-31 20-55 14-39 4-7 6-2zm3 2-15 4-5 5-5 12-7 21-3 7-10 29-5 12-3 9-10 29-4 11-7 18-3 10-7 19-3 9-4 10-6 17-7 20-3 8-7 19-6 17-3 8-1 9 3 3 15 2 11-1 6-4 3-4 3-6 2-9 7-23 4-12 6-17 4-6 2-1 15-1h53l52 1 7 1 3 3 13 39 5 13 8 24 3 2h28l6-3v-8l-5-14-9-27-3-8-10-25-3-10-8-23-5-12-10-29-6-16-8-22-12-34-13-35-7-20-4-11-6-7-5-2-7-1z" fill="#D1FEFD"/>
<path transform="translate(1306,1068)" d="m0 0h26l13 4 8 8 12 20 14 26 15 27 14 25 16 29 12 22 13 23 15 29 12 22 4 8-1 2-7-10-6-11-12-23-9-17-9-15-13-25-6-10-12-23-10-17-12-22-15-27-11-20-8-12-8-7-13-3h-11l-14 2-9 3-1 4v268l-1 21 2 3 6 2h13l10-2 2-2v-160l1-84-1-9h3l1 72 1 9-1 10v119l-1 48-4 2h-28l-6-3-1-9v-283l2-7 5-4z" fill="#D1FEFD"/>
<path transform="translate(1105,544)" d="m0 0h1l-1 9-14 59-16 68-18 75-15 65-18 75-19 81-15 63-22 93-10 44-7 29-10 42-18 76-11 47-4 8-5 5-2 1h-11l-4-2v-1l14-1 6-5 3-8 5-23 4-17 2-7 9-37 8-37 4-15 4-16 5-25 5-18 5-23 2-10 4-18 4-16 5-21 12-48 2-6 3-16 4-17 6-26 9-38 2-6 2-11 6-25 5-21 5-18 3-16 4-17 10-43 8-33 5-19 3-15 3-12 3-14 8-33 2-9 6-26 3-10 3-14 3-10 3-15 4-11 2-10z" fill="#D1FEFD"/>
<path transform="translate(601,1064)" d="m0 0h34l3 1v245l-2 17-6 18-6 10-6 7-10 7-11 5-14 3-13 1-20-2-12-4-8-5-4-5-2-6v-13l2-10 2-3 8 1 14 7 9 2h17l8-3 6-7 4-9 1-6 1-31 1-217zm8 2-8 2-1 1-1 235-1 12-5 16-7 7-8 4h-13l-17-3-7-4h-11l-2 1-1 6v18l4 5 4 3 12 4 18 2 8 1 8-1 4-1 12-2 12-6 10-9 9-13 5-15 2-11v-251l-2-1z" fill="#D1FEFD"/>
<path transform="translate(726,1064)" d="m0 0h28l6 2v305l-9 3h-22l-9-3-1-23v-281l2-2zm7 2-9 2-2 4-1 38 1 44v213l4 4 5 1 19-1 6-2 1-2v-296l-2-4-3-1z" fill="#D1FEFD"/>
<path transform="translate(1502,1067)" d="m0 0h11l8 3 2 4v291l-4 8-5 3-10 2h-17l-10-3-6-5h3l7 3 8 2h16l8-3 5-5 1-3v-277l-1-15-4-1h-10l-12 1-3 1-1 2-1 206-1 35h-2v-245l3-3z" fill="#D1FEFD"/>
<path transform="translate(1331,821)" d="m0 0h10l8 3 4 5 9 21 17 43 14 34 17 43v2h119l5 3 2 5v10l-5 6-4 2-99 1h-31l-10-1-7-8-1-4 7 6 5 2 51 1h76l10-2 2-1 1-3v-9l-1-3-4-1h-106l-9-1-4-4-7-14-6-16-4-11-8-19-5-13-11-28-5-12-4-10-5-11-2-6-7-6h-10l-8 6-9 17-4 11-4 7-8 16-9 19-9 17-2 1 2-6 25-51 11-24 3-9 8-7z" fill="#D1FEFD"/>
<path transform="translate(1114,558)" d="m0 0 2 2 7 25 5 21 7 24 7 26 14 54 4 15 6 23 3 15 5 17 5 19 3 10 6 23 6 22 5 21 10 36 4 17 5 18 4 15 5 21 4 16 6 20 2 6 4 3 12 1 8-4 4-5 5-12 5-8 5-13 23-46 9-19 8-16 5-9 3-5 4-6h3l-4 5-12 26-8 16-8 17-9 17-11 23-14 30-6 9-7 4-14-1-6-4-4-9-5-17-12-48-17-64-20-76-9-34-11-42-12-45-7-27-15-57-11-42z" fill="#D1FEFD"/>
<path transform="translate(765,877)" d="m0 0h4l3 7 7 35 2 6 2 11 4 16 9 42 6 27 15 66 3 15 8 36 3 13 2 12 4 14 4 22 4 14 5 25 7 33 3 11 2 10 5 24 2 4 3 18 6 24 4 14v3l-4-4-3-11-8-36-11-50-20-90-19-86-14-64-9-40-16-73-10-45h-3l-9 14-10 14-8 12-17 25-12 18-8 7-5 2-9-1-9-6-3-3 1-2 6 5 5 3h10l8-6 14-20 8-11 3-6 7-10 1-2h2l2-5 7-10 8-11 6-8z" fill="#D1FEFD"/>
<path transform="translate(1103,1110)" d="m0 0 5 1 7 18 3 8 6 17 12 35 4 9 7 22 4 11 7 17 2 9-1 5-2 2-14 2h-86l-5-3v-12l4-10 5-14 3-9 3-10 4-12 2-4 2-7 3-10 3-8 3-7 11-33 4-10zm1 1-17 48-11 33-17 48-6 19 1 3h104l-1-6-12-36-9-26-10-28-20-55z" fill="#D1FEFD"/>
<path transform="translate(520,866)" d="m0 0h121l7 3 9 9 14 19 14 18 4 6v2h-2l-13-17-8-10v-2h-2l-8-11-2-4-3-2v-2l-4-2-4-3-8-1h-32l-57 1-25 1-4 4-1 9 3 4h15l19 1h24l42 1 8 4 10 13 9 12 10 14 7 9 3 4-1 2-9-11-12-16-11-14-10-13-2-1-101-1-5-5-2-4v-7l4-7z" fill="#D1FEFD"/>
<path transform="translate(1332,1121)" d="m0 0 3 3 5 10 9 16 10 19 8 13 6 11 8 14 14 26 13 23 11 21 7 11 8 17-1 2-13-23-13-24-14-25-13-23-13-24-13-23-14-26-8-16z" fill="#D1FEFD"/>
<path transform="translate(1337,885)" d="m0 0 3 1 6 15 8 17 5 16 8 20 9 21 3 11-2-1-13-32-24-60-3-6z" fill="#D1FEFD"/>
<path transform="translate(1434,1307)" d="m0 0 4 4 8 13 7 14 6 10 6 11 6 8-1 2-6-7-12-20-13-24-5-9z" fill="#D1FEFD"/>
</svg>
