<svg xmlns="http://www.w3.org/2000/svg" width="231" height="127" fill="none" viewBox="0 0 231 127"><path fill="#000" d="M72.9038 22.3522C65.3554 14.7581 54.0648 14.017 44.7231 18.5003C34.7043 23.3129 30.0106 35.1616 30.2485 45.894C30.279 47.3275 30.3522 48.7731 30.4681 50.2309C30.4759 50.3375 30.4611 50.4446 30.4247 50.5451C30.3883 50.6456 30.3311 50.7372 30.2568 50.8141C30.1826 50.891 30.0929 50.9513 29.9937 50.9911C29.8945 51.0309 29.788 51.0494 29.6812 51.0452L26.3508 50.9354C26.0328 50.9256 25.7291 50.7994 25.4967 50.5805C25.2643 50.3616 25.1191 50.0649 25.0882 49.746C24.2891 40.6269 25.811 32.7339 29.6538 26.0669C35.7596 15.4779 45.0891 10.1589 57.6423 10.1101C62.9429 10.0857 68.2131 11.8577 73.4527 15.426C74.7215 16.2922 75.2308 17.4816 74.9807 18.9943L74.4958 21.849C74.2945 23.0506 73.7638 23.2184 72.9038 22.3522Z"/><path fill="#000" d="M132.962 55.3C131.157 55.7148 129.287 55.6416 127.353 55.0805C129.409 46.7117 128.924 38.8705 125.899 31.557C123.584 25.9391 119.348 20.9892 113.977 18.4365C104.559 13.9837 95.4459 14.8377 86.638 20.9984C85.8938 19.2965 85.4455 17.5124 85.293 15.6459C89.0504 12.9254 92.4113 11.3059 95.3758 10.7875C108.539 8.49397 119.082 12.3978 127.006 22.4989C130.556 27.0096 132.779 34.0548 133.749 39.8922C134.536 44.6561 134.274 49.4352 132.962 54.2296C132.895 54.4796 132.895 54.8365 132.962 55.3Z"/><path fill="#000" d="M32.9021 60.2222C34.9242 63.6533 36.626 67.2856 38.6664 70.6069C44.0097 79.3356 52.3083 88.1283 60.1495 94.8075C66.0296 99.8093 72.2635 104.524 78.8512 108.953C79.0356 109.075 79.2521 109.14 79.4734 109.14C79.6947 109.14 79.9111 109.075 80.0956 108.953C94.9361 98.9065 107.8 87.9545 118.249 73.5348C120.006 71.1132 121.549 68.5422 122.879 65.8217C123.107 65.355 123.462 64.9617 123.904 64.6867C124.345 64.4117 124.856 64.266 125.377 64.2663L127.856 64.2754C129.241 64.2815 129.613 64.8976 128.972 66.1236C119.054 85.0266 102.649 100.672 84.7801 112.283C81.9529 114.122 79.6655 115.897 76.39 113.848C64.0198 106.107 52.8573 96.6344 42.9026 85.4292C36.3759 78.0791 31.301 69.7133 27.6777 60.332L32.9021 60.2222Z"/><mask id="path-4-outside-1_1216_751" width="105" height="36" x="122.689" y="53.748" fill="#000" maskUnits="userSpaceOnUse"><rect width="105" height="36" x="122.689" y="53.748" fill="#fff"/><path d="M137.784 55.8073H141.652V78.6396C141.652 80.6774 141.278 82.4086 140.529 83.833C139.781 85.2574 138.725 86.3387 137.363 87.0769C136.001 87.8151 134.395 88.1842 132.544 88.1842C130.797 88.1842 129.243 87.8671 127.881 87.2329C126.519 86.5883 125.448 85.6733 124.668 84.488C123.888 83.3027 123.499 81.8939 123.499 80.2616H127.304C127.304 81.1661 127.527 81.9563 127.975 82.6321C128.432 83.2975 129.056 83.8174 129.846 84.1917C130.636 84.566 131.536 84.7532 132.544 84.7532C133.657 84.7532 134.603 84.5192 135.383 84.0513C136.162 83.5835 136.755 82.8973 137.161 81.9927C137.576 81.0777 137.784 79.96 137.784 78.6396V55.8073ZM148.904 87.7476V63.7924H152.585V87.7476H148.904ZM150.776 59.7998C150.058 59.7998 149.44 59.5555 148.92 59.0668C148.41 58.5781 148.156 57.9907 148.156 57.3045C148.156 56.6183 148.41 56.0308 148.92 55.5422C149.44 55.0535 150.058 54.8092 150.776 54.8092C151.493 54.8092 152.107 55.0535 152.616 55.5422C153.136 56.0308 153.396 56.6183 153.396 57.3045C153.396 57.9907 153.136 58.5781 152.616 59.0668C152.107 59.5555 151.493 59.7998 150.776 59.7998ZM178.914 63.7924L170.056 87.7476H166.313L157.455 63.7924H161.447L168.06 82.8817H168.309L174.922 63.7924H178.914ZM190.093 88.309C188.575 88.309 187.197 88.0231 185.96 87.4512C184.723 86.869 183.74 86.032 183.012 84.9403C182.284 83.8382 181.921 82.5074 181.921 80.9478C181.921 79.5753 182.191 78.4628 182.732 77.6103C183.272 76.7473 183.995 76.0715 184.899 75.5828C185.804 75.0941 186.802 74.7302 187.894 74.4911C188.996 74.2416 190.103 74.044 191.216 73.8985C192.671 73.7113 193.851 73.5709 194.756 73.4774C195.671 73.3734 196.336 73.2018 196.752 72.9627C197.178 72.7236 197.392 72.3077 197.392 71.715V71.5903C197.392 70.0515 196.971 68.8558 196.128 68.0032C195.297 67.1507 194.033 66.7244 192.339 66.7244C190.581 66.7244 189.204 67.1091 188.206 67.8785C187.208 68.6479 186.506 69.4692 186.1 70.3426L182.607 69.0949C183.231 67.6393 184.062 66.506 185.102 65.695C186.152 64.8737 187.296 64.3018 188.533 63.9795C189.781 63.6468 191.008 63.4804 192.214 63.4804C192.983 63.4804 193.867 63.574 194.865 63.7612C195.874 63.9379 196.846 64.307 197.782 64.8685C198.728 65.4299 199.513 66.2773 200.137 67.4106C200.76 68.5439 201.072 70.0619 201.072 71.9646V87.7476H197.392V84.5036H197.204C196.955 85.0235 196.539 85.5797 195.957 86.1724C195.375 86.765 194.6 87.2693 193.633 87.6852C192.666 88.1011 191.486 88.309 190.093 88.309ZM190.654 85.0027C192.11 85.0027 193.337 84.7168 194.335 84.1449C195.343 83.5731 196.102 82.8349 196.612 81.9303C197.132 81.0258 197.392 80.0744 197.392 79.0763V75.7076C197.236 75.8947 196.893 76.0663 196.362 76.2222C195.842 76.3678 195.239 76.4978 194.553 76.6121C193.877 76.7161 193.217 76.8097 192.573 76.8929C191.938 76.9656 191.424 77.028 191.029 77.08C190.072 77.2048 189.178 77.4075 188.346 77.6882C187.525 77.9586 186.859 78.3693 186.35 78.9203C185.851 79.461 185.601 80.1992 185.601 81.1349C185.601 82.4138 186.074 83.3807 187.02 84.0357C187.977 84.6804 189.188 85.0027 190.654 85.0027ZM211.471 73.337V87.7476H207.79V63.7924H211.346V67.5354H211.658C212.219 66.3189 213.072 65.3415 214.216 64.6033C215.359 63.8547 216.836 63.4804 218.645 63.4804C220.267 63.4804 221.686 63.8131 222.903 64.4786C224.119 65.1336 225.065 66.1317 225.741 67.473C226.417 68.8038 226.755 70.4882 226.755 72.526V87.7476H223.074V72.7756C223.074 70.8937 222.585 69.4277 221.608 68.3775C220.631 67.317 219.289 66.7868 217.584 66.7868C216.409 66.7868 215.359 67.0415 214.434 67.551C213.519 68.0604 212.796 68.8038 212.266 69.7812C211.736 70.7585 211.471 71.9438 211.471 73.337Z"/></mask><path fill="#0ECFB4" d="M137.784 55.8073H141.652V78.6396C141.652 80.6774 141.278 82.4086 140.529 83.833C139.781 85.2574 138.725 86.3387 137.363 87.0769C136.001 87.8151 134.395 88.1842 132.544 88.1842C130.797 88.1842 129.243 87.8671 127.881 87.2329C126.519 86.5883 125.448 85.6733 124.668 84.488C123.888 83.3027 123.499 81.8939 123.499 80.2616H127.304C127.304 81.1661 127.527 81.9563 127.975 82.6321C128.432 83.2975 129.056 83.8174 129.846 84.1917C130.636 84.566 131.536 84.7532 132.544 84.7532C133.657 84.7532 134.603 84.5192 135.383 84.0513C136.162 83.5835 136.755 82.8973 137.161 81.9927C137.576 81.0777 137.784 79.96 137.784 78.6396V55.8073ZM148.904 87.7476V63.7924H152.585V87.7476H148.904ZM150.776 59.7998C150.058 59.7998 149.44 59.5555 148.92 59.0668C148.41 58.5781 148.156 57.9907 148.156 57.3045C148.156 56.6183 148.41 56.0308 148.92 55.5422C149.44 55.0535 150.058 54.8092 150.776 54.8092C151.493 54.8092 152.107 55.0535 152.616 55.5422C153.136 56.0308 153.396 56.6183 153.396 57.3045C153.396 57.9907 153.136 58.5781 152.616 59.0668C152.107 59.5555 151.493 59.7998 150.776 59.7998ZM178.914 63.7924L170.056 87.7476H166.313L157.455 63.7924H161.447L168.06 82.8817H168.309L174.922 63.7924H178.914ZM190.093 88.309C188.575 88.309 187.197 88.0231 185.96 87.4512C184.723 86.869 183.74 86.032 183.012 84.9403C182.284 83.8382 181.921 82.5074 181.921 80.9478C181.921 79.5753 182.191 78.4628 182.732 77.6103C183.272 76.7473 183.995 76.0715 184.899 75.5828C185.804 75.0941 186.802 74.7302 187.894 74.4911C188.996 74.2416 190.103 74.044 191.216 73.8985C192.671 73.7113 193.851 73.5709 194.756 73.4774C195.671 73.3734 196.336 73.2018 196.752 72.9627C197.178 72.7236 197.392 72.3077 197.392 71.715V71.5903C197.392 70.0515 196.971 68.8558 196.128 68.0032C195.297 67.1507 194.033 66.7244 192.339 66.7244C190.581 66.7244 189.204 67.1091 188.206 67.8785C187.208 68.6479 186.506 69.4692 186.1 70.3426L182.607 69.0949C183.231 67.6393 184.062 66.506 185.102 65.695C186.152 64.8737 187.296 64.3018 188.533 63.9795C189.781 63.6468 191.008 63.4804 192.214 63.4804C192.983 63.4804 193.867 63.574 194.865 63.7612C195.874 63.9379 196.846 64.307 197.782 64.8685C198.728 65.4299 199.513 66.2773 200.137 67.4106C200.76 68.5439 201.072 70.0619 201.072 71.9646V87.7476H197.392V84.5036H197.204C196.955 85.0235 196.539 85.5797 195.957 86.1724C195.375 86.765 194.6 87.2693 193.633 87.6852C192.666 88.1011 191.486 88.309 190.093 88.309ZM190.654 85.0027C192.11 85.0027 193.337 84.7168 194.335 84.1449C195.343 83.5731 196.102 82.8349 196.612 81.9303C197.132 81.0258 197.392 80.0744 197.392 79.0763V75.7076C197.236 75.8947 196.893 76.0663 196.362 76.2222C195.842 76.3678 195.239 76.4978 194.553 76.6121C193.877 76.7161 193.217 76.8097 192.573 76.8929C191.938 76.9656 191.424 77.028 191.029 77.08C190.072 77.2048 189.178 77.4075 188.346 77.6882C187.525 77.9586 186.859 78.3693 186.35 78.9203C185.851 79.461 185.601 80.1992 185.601 81.1349C185.601 82.4138 186.074 83.3807 187.02 84.0357C187.977 84.6804 189.188 85.0027 190.654 85.0027ZM211.471 73.337V87.7476H207.79V63.7924H211.346V67.5354H211.658C212.219 66.3189 213.072 65.3415 214.216 64.6033C215.359 63.8547 216.836 63.4804 218.645 63.4804C220.267 63.4804 221.686 63.8131 222.903 64.4786C224.119 65.1336 225.065 66.1317 225.741 67.473C226.417 68.8038 226.755 70.4882 226.755 72.526V87.7476H223.074V72.7756C223.074 70.8937 222.585 69.4277 221.608 68.3775C220.631 67.317 219.289 66.7868 217.584 66.7868C216.409 66.7868 215.359 67.0415 214.434 67.551C213.519 68.0604 212.796 68.8038 212.266 69.7812C211.736 70.7585 211.471 71.9438 211.471 73.337Z"/><path fill="#0ECFB4" d="M137.784 55.8073V55.1668H137.144V55.8073H137.784ZM141.652 55.8073H142.293V55.1668H141.652V55.8073ZM140.529 83.833L141.096 84.131L140.529 83.833ZM137.363 87.0769L137.668 87.64L137.363 87.0769ZM127.881 87.2329L127.607 87.8118L127.611 87.8135L127.881 87.2329ZM124.668 84.488L124.133 84.84L124.668 84.488ZM123.499 80.2616V79.6211H122.858V80.2616H123.499ZM127.304 80.2616H127.944V79.6211H127.304V80.2616ZM127.975 82.6321L127.44 82.9855L127.447 82.995L127.975 82.6321ZM129.846 84.1917L130.12 83.6129L129.846 84.1917ZM135.383 84.0513L135.053 83.5021L135.383 84.0513ZM137.161 81.9927L136.577 81.7277L136.576 81.7307L137.161 81.9927ZM137.784 56.4478H141.652V55.1668H137.784V56.4478ZM141.012 55.8073V78.6396H142.293V55.8073H141.012ZM141.012 78.6396C141.012 80.6006 140.651 82.2238 139.962 83.535L141.096 84.131C141.904 82.5934 142.293 80.7543 142.293 78.6396H141.012ZM139.962 83.535C139.27 84.8517 138.304 85.8386 137.058 86.5139L137.668 87.64C139.147 86.8389 140.291 85.6631 141.096 84.131L139.962 83.535ZM137.058 86.5139C135.806 87.1923 134.309 87.5438 132.544 87.5438V88.8247C134.481 88.8247 136.196 88.438 137.668 87.64L137.058 86.5139ZM132.544 87.5438C130.876 87.5438 129.416 87.2412 128.151 86.6523L127.611 87.8135C129.07 88.4931 130.719 88.8247 132.544 88.8247V87.5438ZM128.155 86.654C126.892 86.0564 125.914 85.217 125.203 84.136L124.133 84.84C124.982 86.1296 126.146 87.1202 127.607 87.8118L128.155 86.654ZM125.203 84.136C124.502 83.0703 124.139 81.7881 124.139 80.2616H122.858C122.858 81.9997 123.275 83.5352 124.133 84.84L125.203 84.136ZM123.499 80.902H127.304V79.6211H123.499V80.902ZM126.663 80.2616C126.663 81.2766 126.916 82.1929 127.44 82.9855L128.509 82.2788C128.139 81.7197 127.944 81.0556 127.944 80.2616H126.663ZM127.447 82.995C127.974 83.7611 128.688 84.352 129.572 84.7705L130.12 83.6129C129.423 83.2828 128.891 82.834 128.502 82.2693L127.447 82.995ZM129.572 84.7705C130.46 85.1912 131.455 85.3936 132.544 85.3936V84.1127C131.616 84.1127 130.813 83.9408 130.12 83.6129L129.572 84.7705ZM132.544 85.3936C133.747 85.3936 134.813 85.1402 135.712 84.6005L135.053 83.5021C134.393 83.8983 133.566 84.1127 132.544 84.1127V85.3936ZM135.712 84.6005C136.614 84.0592 137.291 83.2675 137.745 82.2547L136.576 81.7307C136.219 82.527 135.71 83.1078 135.053 83.5021L135.712 84.6005ZM137.744 82.2577C138.207 81.2378 138.425 80.0241 138.425 78.6396H137.144C137.144 79.896 136.946 80.9177 136.577 81.7277L137.744 82.2577ZM138.425 78.6396V55.8073H137.144V78.6396H138.425ZM148.904 87.7476H148.264V88.388H148.904V87.7476ZM148.904 63.7924V63.1519H148.264V63.7924H148.904ZM152.585 63.7924H153.225V63.1519H152.585V63.7924ZM152.585 87.7476V88.388H153.225V87.7476H152.585ZM148.92 59.0668L148.476 59.5291L148.481 59.5335L148.92 59.0668ZM148.92 55.5422L148.481 55.0755L148.476 55.0799L148.92 55.5422ZM152.616 55.5422L152.173 56.0044L152.177 56.0088L152.616 55.5422ZM152.616 59.0668L152.177 58.6001L152.173 58.6046L152.616 59.0668ZM149.545 87.7476V63.7924H148.264V87.7476H149.545ZM148.904 64.4328H152.585V63.1519H148.904V64.4328ZM151.944 63.7924V87.7476H153.225V63.7924H151.944ZM152.585 87.1071H148.904V88.388H152.585V87.1071ZM150.776 59.1594C150.22 59.1594 149.759 58.9765 149.358 58.6002L148.481 59.5335C149.12 60.1345 149.896 60.4403 150.776 60.4403V59.1594ZM149.363 58.6046C148.976 58.2328 148.796 57.8106 148.796 57.3045H147.515C147.515 58.1708 147.845 58.9235 148.476 59.529L149.363 58.6046ZM148.796 57.3045C148.796 56.7983 148.976 56.3762 149.363 56.0044L148.476 55.0799C147.845 55.6855 147.515 56.4382 147.515 57.3045H148.796ZM149.358 56.0088C149.759 55.6325 150.22 55.4496 150.776 55.4496V54.1687C149.896 54.1687 149.12 54.4745 148.481 55.0755L149.358 56.0088ZM150.776 55.4496C151.331 55.4496 151.785 55.6321 152.173 56.0044L153.059 55.0799C152.428 54.4748 151.655 54.1687 150.776 54.1687V55.4496ZM152.177 56.0088C152.574 56.3819 152.755 56.8028 152.755 57.3045H154.036C154.036 56.4338 153.698 55.6798 153.055 55.0755L152.177 56.0088ZM152.755 57.3045C152.755 57.8062 152.574 58.2271 152.177 58.6002L153.055 59.5335C153.698 58.9292 154.036 58.1752 154.036 57.3045H152.755ZM152.173 58.6046C151.785 58.9768 151.331 59.1594 150.776 59.1594V60.4403C151.655 60.4403 152.428 60.1341 153.059 59.529L152.173 58.6046ZM178.914 63.7924L179.515 64.0145L179.834 63.1519H178.914V63.7924ZM170.056 87.7476V88.388H170.502L170.657 87.9697L170.056 87.7476ZM166.313 87.7476L165.712 87.9697L165.867 88.388H166.313V87.7476ZM157.455 63.7924V63.1519H156.535L156.854 64.0145L157.455 63.7924ZM161.447 63.7924L162.052 63.5827L161.903 63.1519H161.447V63.7924ZM168.06 82.8817L167.455 83.0913L167.604 83.5221H168.06V82.8817ZM168.309 82.8817V83.5221H168.765L168.914 83.0913L168.309 82.8817ZM174.922 63.7924V63.1519H174.466L174.317 63.5827L174.922 63.7924ZM178.314 63.5702L169.455 87.5254L170.657 87.9697L179.515 64.0145L178.314 63.5702ZM170.056 87.1071H166.313V88.388H170.056V87.1071ZM166.914 87.5254L158.055 63.5702L156.854 64.0145L165.712 87.9697L166.914 87.5254ZM157.455 64.4328H161.447V63.1519H157.455V64.4328ZM160.842 64.002L167.455 83.0913L168.665 82.672L162.052 63.5827L160.842 64.002ZM168.06 83.5221H168.309V82.2412H168.06V83.5221ZM168.914 83.0913L175.527 64.002L174.317 63.5827L167.704 82.672L168.914 83.0913ZM174.922 64.4328H178.914V63.1519H174.922V64.4328ZM185.96 87.4512L185.687 88.0308L185.691 88.0326L185.96 87.4512ZM183.012 84.9403L182.478 85.2933L182.479 85.2956L183.012 84.9403ZM182.732 77.6103L183.272 77.9533L183.274 77.9503L182.732 77.6103ZM187.894 74.4911L188.031 75.1167L188.035 75.1158L187.894 74.4911ZM191.216 73.8985L191.134 73.2632L191.133 73.2634L191.216 73.8985ZM194.756 73.4774L194.822 74.1145L194.828 74.1137L194.756 73.4774ZM196.752 72.9627L196.439 72.4041L196.433 72.4075L196.752 72.9627ZM196.128 68.0032L195.67 68.4505L195.673 68.4533L196.128 68.0032ZM188.206 67.8785L188.597 68.3857L188.206 67.8785ZM186.1 70.3426L185.885 70.9458L186.435 71.1423L186.681 70.6123L186.1 70.3426ZM182.607 69.0949L182.018 68.8426L181.75 69.4689L182.391 69.6981L182.607 69.0949ZM185.102 65.695L185.496 66.2001L185.497 66.1995L185.102 65.695ZM188.533 63.9795L188.695 64.5993L188.698 64.5983L188.533 63.9795ZM194.865 63.7612L194.747 64.3907L194.755 64.392L194.865 63.7612ZM197.782 64.8685L197.452 65.4177L197.455 65.4193L197.782 64.8685ZM200.137 67.4106L199.575 67.7194L200.137 67.4106ZM201.072 87.7476V88.388H201.713V87.7476H201.072ZM197.392 87.7476H196.751V88.388H197.392V87.7476ZM197.392 84.5036H198.032V83.8632H197.392V84.5036ZM197.204 84.5036V83.8632H196.801L196.627 84.2265L197.204 84.5036ZM195.957 86.1724L196.414 86.6212L195.957 86.1724ZM193.633 87.6852L193.38 87.0968L193.633 87.6852ZM194.335 84.1449L194.019 83.5878L194.016 83.5892L194.335 84.1449ZM196.612 81.9303L196.057 81.6112L196.054 81.616L196.612 81.9303ZM197.392 75.7076H198.032V73.9386L196.9 75.2976L197.392 75.7076ZM196.362 76.2222L196.535 76.839L196.543 76.8367L196.362 76.2222ZM194.553 76.6121L194.651 77.2452L194.658 77.2439L194.553 76.6121ZM192.573 76.8929L192.646 77.5292L192.654 77.5281L192.573 76.8929ZM191.029 77.08L191.111 77.7151L191.112 77.715L191.029 77.08ZM188.346 77.6882L188.546 78.2966L188.551 78.2951L188.346 77.6882ZM186.35 78.9203L185.88 78.4855L185.879 78.4859L186.35 78.9203ZM187.02 84.0358L186.656 84.5624L186.662 84.5669L187.02 84.0358ZM190.093 87.6685C188.657 87.6685 187.372 87.3986 186.229 86.8699L185.691 88.0326C187.022 88.6476 188.493 88.9495 190.093 88.9495V87.6685ZM186.233 86.8717C185.096 86.337 184.205 85.5755 183.545 84.585L182.479 85.2956C183.275 86.4885 184.349 87.401 185.687 88.0307L186.233 86.8717ZM183.547 84.5874C182.9 83.6077 182.561 82.405 182.561 80.9478H181.28C181.28 82.6097 181.669 84.0687 182.478 85.2932L183.547 84.5874ZM182.561 80.9478C182.561 79.6545 182.816 78.6726 183.272 77.9533L182.191 77.2673C181.566 78.2531 181.28 79.4962 181.28 80.9478H182.561ZM183.274 77.9503C183.756 77.1821 184.396 76.5829 185.204 76.1463L184.595 75.0193C183.594 75.5601 182.789 76.3125 182.189 77.2702L183.274 77.9503ZM185.204 76.1463C186.051 75.6884 186.992 75.3442 188.031 75.1167L187.757 73.8655C186.612 74.1163 185.556 74.4999 184.595 75.0193L185.204 76.1463ZM188.035 75.1158C189.118 74.8706 190.206 74.6765 191.299 74.5335L191.133 73.2634C190 73.4115 188.874 73.6126 187.752 73.8664L188.035 75.1158ZM191.297 74.5337C192.75 74.3469 193.925 74.2072 194.822 74.1144L194.69 72.8403C193.778 72.9346 192.592 73.0757 191.134 73.2632L191.297 74.5337ZM194.828 74.1137C195.765 74.0073 196.538 73.8246 197.071 73.5179L196.433 72.4075C196.134 72.5791 195.577 72.7395 194.684 72.841L194.828 74.1137ZM197.066 73.5213C197.74 73.1429 198.032 72.4811 198.032 71.715H196.751C196.751 72.1343 196.617 72.3042 196.439 72.4041L197.066 73.5213ZM198.032 71.715V71.5903H196.751V71.715H198.032ZM198.032 71.5903C198.032 69.933 197.576 68.557 196.584 67.5531L195.673 68.4533C196.365 69.1546 196.751 70.17 196.751 71.5903H198.032ZM196.587 67.556C195.591 66.5354 194.132 66.0839 192.339 66.0839V67.3648C193.935 67.3648 195.002 67.7659 195.67 68.4505L196.587 67.556ZM192.339 66.0839C190.495 66.0839 188.962 66.4871 187.815 67.3712L188.597 68.3857C189.446 67.731 190.668 67.3648 192.339 67.3648V66.0839ZM187.815 67.3712C186.759 68.1847 185.979 69.0819 185.519 70.0729L186.681 70.6123C187.032 69.8565 187.656 69.111 188.597 68.3857L187.815 67.3712ZM186.316 69.7394L182.822 68.4918L182.391 69.6981L185.885 70.9458L186.316 69.7394ZM183.195 69.3472C183.785 67.971 184.557 66.9324 185.496 66.2001L184.708 65.19C183.568 66.0796 182.676 67.3076 182.018 68.8426L183.195 69.3472ZM185.497 66.1995C186.481 65.4298 187.546 64.8986 188.695 64.5993L188.372 63.3597C187.046 63.7051 185.824 64.3176 184.708 65.1906L185.497 66.1995ZM188.698 64.5983C189.896 64.279 191.067 64.1209 192.214 64.1209V62.84C190.948 62.84 189.666 63.0146 188.368 63.3607L188.698 64.5983ZM192.214 64.1209C192.933 64.1209 193.776 64.2086 194.747 64.3907L194.983 63.1317C193.958 62.9394 193.033 62.84 192.214 62.84V64.1209ZM194.755 64.392C195.681 64.5543 196.579 64.8939 197.452 65.4177L198.111 64.3193C197.112 63.7201 196.067 63.3215 194.976 63.1303L194.755 64.392ZM197.455 65.4193C198.286 65.9129 198.997 66.6685 199.575 67.7194L200.698 67.1017C200.028 65.8861 199.169 64.947 198.108 64.3177L197.455 65.4193ZM199.575 67.7194C200.128 68.7239 200.432 70.1226 200.432 71.9646H201.713C201.713 70.0011 201.392 68.3638 200.698 67.1017L199.575 67.7194ZM200.432 71.9646V87.7476H201.713V71.9646H200.432ZM201.072 87.1071H197.392V88.388H201.072V87.1071ZM198.032 87.7476V84.5036H196.751V87.7476H198.032ZM197.392 83.8632H197.204V85.1441H197.392V83.8632ZM196.627 84.2265C196.418 84.6616 196.053 85.1609 195.5 85.7235L196.414 86.6212C197.025 85.9985 197.492 85.3854 197.782 84.7808L196.627 84.2265ZM195.5 85.7235C194.989 86.2434 194.29 86.7053 193.38 87.0968L193.886 88.2735C194.91 87.8332 195.76 87.2867 196.414 86.6212L195.5 85.7235ZM193.38 87.0968C192.514 87.4691 191.426 87.6685 190.093 87.6685V88.9495C191.546 88.9495 192.818 88.733 193.886 88.2735L193.38 87.0968ZM190.654 85.6432C192.192 85.6432 193.536 85.3409 194.653 84.7006L194.016 83.5892C193.138 84.0926 192.027 84.3622 190.654 84.3622V85.6432ZM194.651 84.7021C195.748 84.0797 196.597 83.2621 197.17 82.2446L196.054 81.616C195.608 82.4076 194.938 83.0665 194.019 83.5878L194.651 84.7021ZM197.167 82.2494C197.74 81.2524 198.032 80.1916 198.032 79.0763H196.751C196.751 79.9572 196.523 80.7991 196.057 81.6112L197.167 82.2494ZM198.032 79.0763V75.7076H196.751V79.0763H198.032ZM196.9 75.2976C196.901 75.2955 196.864 75.3373 196.731 75.4037C196.605 75.4669 196.425 75.5363 196.182 75.6078L196.543 76.8367C196.83 76.7522 197.087 76.6578 197.304 76.5495C197.514 76.4444 197.726 76.3068 197.884 76.1176L196.9 75.2976ZM196.19 75.6055C195.697 75.7434 195.118 75.8688 194.448 75.9804L194.658 77.2439C195.361 77.1267 195.988 76.9922 196.535 76.839L196.19 75.6055ZM194.456 75.9791C193.785 76.0823 193.13 76.1752 192.491 76.2577L192.654 77.5281C193.305 77.4442 193.97 77.3499 194.651 77.2452L194.456 75.9791ZM192.5 76.2566C191.864 76.3295 191.345 76.3924 190.945 76.445L191.112 77.715C191.502 77.6637 192.013 77.6017 192.646 77.5292L192.5 76.2566ZM190.946 76.4449C189.952 76.5746 189.016 76.7861 188.141 77.0814L188.551 78.2951C189.339 78.029 190.192 77.835 191.111 77.7151L190.946 76.4449ZM188.146 77.0799C187.237 77.379 186.473 77.8432 185.88 78.4855L186.82 79.3551C187.245 78.8953 187.812 78.5382 188.546 78.2966L188.146 77.0799ZM185.879 78.4859C185.244 79.1745 184.961 80.0836 184.961 81.1349H186.242C186.242 80.3148 186.458 79.7475 186.82 79.3547L185.879 78.4859ZM184.961 81.1349C184.961 82.5966 185.516 83.7729 186.656 84.5623L187.385 83.5092C186.633 82.9885 186.242 82.2309 186.242 81.1349H184.961ZM186.662 84.5669C187.75 85.2999 189.095 85.6432 190.654 85.6432V84.3622C189.281 84.3622 188.204 84.0609 187.378 83.5046L186.662 84.5669ZM211.471 87.7476V88.388H212.111V87.7476H211.471ZM207.79 87.7476H207.15V88.388H207.79V87.7476ZM207.79 63.7924V63.1519H207.15V63.7924H207.79ZM211.346 63.7924H211.986V63.1519H211.346V63.7924ZM211.346 67.5354H210.706V68.1758H211.346V67.5354ZM211.658 67.5354V68.1758H212.068L212.239 67.8037L211.658 67.5354ZM214.216 64.6033L214.563 65.1415L214.566 65.1392L214.216 64.6033ZM222.903 64.4786L222.595 65.0405L222.599 65.0425L222.903 64.4786ZM225.741 67.473L225.169 67.7612L225.17 67.763L225.741 67.473ZM226.755 87.7476V88.388H227.395V87.7476H226.755ZM223.074 87.7476H222.434V88.388H223.074V87.7476ZM221.608 68.3775L221.137 68.8116L221.139 68.8139L221.608 68.3775ZM214.434 67.551L214.125 66.9899L214.122 66.9914L214.434 67.551ZM212.266 69.7812L211.703 69.4757L212.266 69.7812ZM210.83 73.337V87.7476H212.111V73.337H210.83ZM211.471 87.1071H207.79V88.388H211.471V87.1071ZM208.431 87.7476V63.7924H207.15V87.7476H208.431ZM207.79 64.4328H211.346V63.1519H207.79V64.4328ZM210.706 63.7924V67.5354H211.986V63.7924H210.706ZM211.346 68.1758H211.658V66.8949H211.346V68.1758ZM212.239 67.8037C212.749 66.6994 213.52 65.8149 214.563 65.1415L213.868 64.0652C212.624 64.8682 211.69 65.9383 211.076 67.267L212.239 67.8037ZM214.566 65.1392C215.577 64.4777 216.921 64.1209 218.645 64.1209V62.84C216.751 62.84 215.142 63.2318 213.865 64.0675L214.566 65.1392ZM218.645 64.1209C220.178 64.1209 221.488 64.4347 222.595 65.0405L223.21 63.9167C221.884 63.1916 220.356 62.84 218.645 62.84V64.1209ZM222.599 65.0425C223.69 65.6298 224.547 66.5264 225.169 67.7612L226.313 67.1848C225.583 65.737 224.548 64.6374 223.206 63.9147L222.599 65.0425ZM225.17 67.763C225.787 68.9773 226.114 70.554 226.114 72.526H227.395C227.395 70.4223 227.047 68.6304 226.312 67.183L225.17 67.763ZM226.114 72.526V87.7476H227.395V72.526H226.114ZM226.755 87.1071H223.074V88.388H226.755V87.1071ZM223.715 87.7476V72.7756H222.434V87.7476H223.715ZM223.715 72.7756C223.715 70.7836 223.195 69.143 222.077 67.9412L221.139 68.8139C221.975 69.7123 222.434 71.0037 222.434 72.7756H223.715ZM222.079 67.9435C220.958 66.7274 219.433 66.1463 217.584 66.1463V67.4272C219.146 67.4272 220.303 67.9067 221.137 68.8116L222.079 67.9435ZM217.584 66.1463C216.314 66.1463 215.155 66.4227 214.125 66.9899L214.743 68.112C215.563 67.6603 216.505 67.4272 217.584 67.4272V66.1463ZM214.122 66.9914C213.095 67.5637 212.288 68.3984 211.703 69.4757L212.829 70.0866C213.305 69.2092 213.943 68.5571 214.746 68.1105L214.122 66.9914ZM211.703 69.4757C211.111 70.5677 210.83 71.8636 210.83 73.337H212.111C212.111 72.0239 212.361 70.9493 212.829 70.0866L211.703 69.4757Z" mask="url(#path-4-outside-1_1216_751)"/><path fill="#0ECFB4" d="M85.2922 15.6456C85.4447 17.5121 85.893 19.2962 86.6372 20.9981C88.1743 32.9291 89.7328 44.9028 91.3126 56.9192C91.8524 61.0548 92.7216 64.9251 93.7921 68.8228C94.4936 71.3847 95.189 71.3816 95.8782 68.8136C97.1531 64.0376 98.3547 59.1273 99.4832 54.0829C99.9406 52.0212 100.734 50.2919 101.862 48.8951C106.254 43.4602 112.576 50.3864 115.541 53.7077C116.95 55.2906 118.569 55.2266 120.536 55.2357C122.842 55.2479 125.114 55.1961 127.353 55.0802C129.286 55.6413 131.156 55.7145 132.961 55.2998C132.961 55.2998 136.653 55.3978 139.073 55.3546C140.389 55.3312 142.276 55.3546 142.276 55.3546C142.276 55.3546 142.276 55.3546 142.276 56.2696V59.0145C142.276 59.0145 140.019 58.984 139.073 59.0145C131.07 59.2402 124.37 60.1765 118.002 59.9752C112.851 59.8196 110.737 53.9182 106.556 51.8046C106.269 51.6582 105.985 51.6674 105.705 51.8321C104.845 52.3383 104.305 53.1283 104.085 54.2018C102.884 60.0453 101.578 65.4588 100.169 70.4423C99.8278 71.6439 99.3093 72.9279 98.6139 74.2942C97.15 77.1763 94.0117 78.1553 91.8616 75.2641C88.9246 71.3206 87.9456 64.6231 87.1953 59.7007C85.7314 50.1059 84.3071 39.1111 82.9225 26.7165C82.8981 26.4786 82.8066 26.2713 82.648 26.0944C82.2942 25.6918 82.0807 25.7558 82.0075 26.2865C79.7628 42.8106 78.0884 59.6763 76.9844 76.8835C76.6184 82.6112 76.0511 88.4486 75.1636 94.1122C74.9623 95.4236 74.4408 96.6161 73.5991 97.6896C73.3978 97.9397 73.1416 98.0953 72.8305 98.1563C70.8664 98.5467 69.5977 97.6744 69.0243 95.5395C68.3655 93.0447 67.9202 90.8397 67.6884 88.9244C66.4624 78.5366 64.663 68.3379 62.2902 58.3283C61.8693 56.5441 61.4942 54.6044 60.4054 53.1588C59.71 52.2377 58.9415 52.1706 58.0997 52.9575C54.5405 56.2788 51.814 60.2405 46.434 60.0026C43.7624 59.8867 39.2516 59.9599 32.9018 60.2222L27.6774 60.332L17.0548 59.9843C16.5241 59.9721 16.3503 59.7159 16.5333 59.2158L17.6678 56.1049C17.7546 55.8728 17.9086 55.6724 18.1096 55.5303C18.3105 55.3882 18.5489 55.311 18.7932 55.3089C27.4975 55.132 36.6562 55.1503 46.2693 55.3638C51.3748 55.4827 52.8021 49.6362 57.4958 48.282C64.1018 46.3881 65.8128 53.1862 66.9473 58.0812C68.9511 66.7733 70.6163 74.6145 71.1561 81.742C71.1927 82.2604 71.3788 82.3184 71.7142 81.9158C72.0558 81.5071 72.2419 81.0313 72.2724 80.4885C73.3764 61.7563 75.2124 42.527 77.7804 22.8005C78.1586 19.8788 78.8204 17.2406 79.7659 14.8862C80.4429 13.2209 82.3369 12.1962 83.8923 13.7516C84.423 14.2762 84.8896 14.9075 85.2922 15.6456Z"/></svg>