<?xml version="1.0" encoding="UTF-8"?>
<svg version="1.1" viewBox="0 0 2048 558" width="1280" height="1280" xmlns="http://www.w3.org/2000/svg">
<path transform="translate(780,262)" d="m0 0h800l2 2v108l-2 6-10 1h-181l-613-1-2-5-1-41v-26l1-35 1-7z" fill="#F9CB19"/>
<path transform="translate(555,88)" d="m0 0h161l2 2v159l-3 5-16 15-9 9-7 9-1 76-1 19-1 1-95 1-8 6-7 7-7 8-12 12-4 2h-160l-2-3-1-12v-124l1-23 7-8 22-22 4-6 1-3 1-92 3-3 8-1 85 1 7-4 7-7 7-8 14-14zm-118 51-1 1-1 16v55l1 154 3 3 31 1h21l76-1h96l3-2 1-78v-130l-1-16-3-3z" fill="#0A3586"/>
<path transform="translate(538,163)" d="m0 0h28l18 5 12 6 13 8 13 13 7 10 10 19 4 17v27l-5 18-6 12-12 16-12 12-10 7-11 5-22 6-8 1h-12l-20-4-16-6-14-9-12-11-14-19-6-15-3-12-1-7 1-22 4-18 10-19 8-10 9-9 13-9 12-6 17-5z" fill="#F9CB19"/>
<path transform="translate(914,131)" d="m0 0h12l6 8 12 21 9 17 6 10 6 13h3l11-21 12-21 13-25 2-2h13v110l-2 1h-11l-1-1v-77l-5 3-3 5-13 24-10 18-4 4h-6l-4-4-13-24-12-21-4-5h-3v76l-3 2h-8l-3-2z" fill="#093584"/>
<path transform="translate(1495,130)" d="m0 0 12 1 8 11 13 19 10 15 11 15 9 16 5 6 3 1v-77l2-7h8l5 1v110l-1 1h-11l-5-5-10-15-13-19-8-11-8-12-6-8-7-12-4-2-1 82-3 2h-10l-1-1-1-104 1-6z" fill="#0C3785"/>
<path transform="translate(1318,130)" d="m0 0 10 1 2 4v28l-1 76-3 3h-10l-1-1-1-44-1-3h-56l-1 2-1 44-2 2h-11l-2-3v-107l1-1h12l2 2 1 44 1 1h56l1-43 1-4z" fill="#0D3883"/>
<path transform="translate(1045,130)" d="m0 0h61l13 1 1 3v7l-1 1-63 1 1 33 1 1 54 1 3 1v10l-2 2-55 1-1 1-1 35 58 1 5 1 1 9-1 3h-72l-6-8v-103z" fill="#0F3881"/>
<path transform="translate(1169,129)" d="m0 0h20l11 2 11 6 6 5 6 12v11l-1 1h-11l-5-13-6-8-3-2-13-1h-15l-8 1-9 8-4 10v52l3 7 8 7 7 2 31-1 5-2 2-4 4-7 2-9 1-1h12v10l-3 7-5 8-7 7-10 5-9 1h-25l-13-4-9-7-7-11-4-12v-45l5-15 5-8 10-7 10-4z" fill="#0B3683"/>
<path transform="translate(1387,130)" d="m0 0h6l4 2 5 9 8 20 11 28 11 27 7 20v5l-2 1h-9l-5-8-7-19-1-1h-47l-3 5-8 21-3 2h-10l-2-4 4-8 12-32 4-12 13-32 8-20zm3 21-3 7-8 21-6 15v6l1 1h34l2-1-2-9-7-19-6-18-3-3z" fill="#0A3584"/>
<path transform="translate(793,130)" d="m0 0h58l9 1 1 2v7l-1 2-32 1-1 1-1 97-2 1h-13l-1-1-1-96-1-2-31-1-2-3 1-8z" fill="#083485"/>
<path transform="translate(1429,286)" d="m0 0h7l1 2v49l-1 13-7-1v-3l-10 4h-14l-5-3-4-5-2-5v-18l4-10 6-5 4-1h11l7 2 1-14z" fill="#1C3E5F"/>
<path transform="translate(1192,303)" d="m0 0h15l7 3 7 8 2 5v15l-3 8-7 7-7 2h-11l-10-3-5-5-3-9 1-17 4-8 5-4z" fill="#244258"/>
<path transform="translate(1356,303)" d="m0 0h13l6 2 7 6 2 7v20l-4 7-6 4-8 2h-9l-9-3-6-7-1-4v-21l3-6 8-6z" fill="#244258"/>
<path transform="translate(1457,130)" d="m0 0 12 1 2 1-1 108-3 2h-10l-2-2v-108z" fill="#0D3781"/>
<path transform="translate(594,202)" d="m0 0 8 8-1 4-17 16-12 12-7 8-10 10-8 7-14 14-7 8-10 10-7 5-5-3-4-5 6-7 8-7 15-15 7-8 8-7 23-23 7-8 11-10 5-6h2v-2z" fill="#193C63"/>
<path transform="translate(876,131)" d="m0 0h14l1 1-1 108-3 2h-9l-2-2z" fill="#0E3882"/>
<path transform="translate(1033,303)" d="m0 0h13l5 3 4 5 1 3 1 35h-10l-1-34-5-4-5 1-5 3-1 20v14l-1 1h-8l-1-1-1-34-7-4-4 1-5 5-1 32-1 1h-8l-1-1v-44h10l3 2 1-3h15l4 4 4-1z" fill="#244258"/>
<path transform="translate(962,303)" d="m0 0 10 1 5 4 2 6v36l-9-1-1-35-1-1h-11l-5 7v29l-6 1-4-1-1-35-1-1h-10l-4 4-2 33h-8v-42l1-3h6v2l4-3h18l2 4 8-3z" fill="#254358"/>
<path transform="translate(1080,303)" d="m0 0h17l8 4 5 8 1 10-1 5-3 1-30-1 2 10 7 2h7l7-3 4-3 5 2 1 2-7 8-8 3h-12l-8-3-6-7-1-3v-23l4-6z" fill="#244258"/>
<path transform="translate(1463,303)" d="m0 0h13l8 3 4 5 2 4v13l-4 2h-29l2 10 9 2 10-1 6-4h5l-1 6-8 7-4 1h-14l-7-3-6-7-1-4v-20l3-7 5-5z" fill="#244258"/>
<path transform="translate(823,303)" d="m0 0h16l5 2 4 6 1 6-1 1h-5l-3-5-2-1h-15l-3 3 2 6 8 2 13 3 6 4 2 8-2 7-4 4-7 2h-15l-8-4-4-5v-6l6 1 4 3 8 2h7l6-3v-5l-18-4-10-4-3-5v-7l3-6 5-4z" fill="#254358"/>
<path transform="translate(864,304)" d="m0 0h5l1 1 1 36h11l7-1 1-3h2l1-32 5-1 4 1v45h-9l-1-4-3 1-2 3h-17l-5-4-4-8v-32z" fill="#244258"/>
<path transform="translate(1306,303)" d="m0 0h13l7 3 6 8-1 5h-8l-4-6-1-1h-10l-6 3-2 4v19l4 3h15l3-3 2-4h7v6l-5 7-5 3-4 1h-12l-8-3-6-7-2-7v-12l2-8 7-8 3-2z" fill="#254358"/>
<path transform="translate(519,200)" d="m0 0h5l5 5-1 5-12 12-3 2 1 6 14 14-1 5-6 5-5-2-21-21-2-3 1-4 8-8 8-7z" fill="#1B3D61"/>
<path transform="translate(579,255)" d="m0 0 5 1 9 7 15 15 1 5-9 10-11 10-5 4h-5l-5-5 1-4 13-13 1-5-7-8-8-9 1-4z" fill="#254358"/>
<path transform="translate(1252,285)" d="m0 0 4 1 1 1v6l-7 2-3 1v7l9 1v8l-3 1h-7v37h-8l-1-37-8-1 1-7 7-2 2-10 7-6z" fill="#254358"/>
<path transform="translate(1195,311)" d="m0 0h11l5 5 2 4v15l-3 5-4 2h-13l-5-4-2-6 1-13 6-7z" fill="#F9CB19"/>
<path transform="translate(1358,311)" d="m0 0h10l5 3 2 8v15l-5 5-11 1-7-3-2-3v-19l3-5z" fill="#F9CB19"/>
<path transform="translate(1410,311)" d="m0 0h9l7 3 1 2v19l-3 5-4 2h-13l-4-4-1-3v-16l6-7z" fill="#F9CB19"/>
<path transform="translate(594,202)" d="m0 0 8 8-1 4-17 16-12 12-7 8-10 10-8 7-14 14-7 8-10 10-7 5-5-3-4-5 6-7 8-7 15-15 7-8 8-7 23-23 7-8 11-10 5-6h2v-2zm-2 4-4 4-3 5-9 7-6 6v2h-2l-4 5-8 7-11 12-2 1v2l-4 2-7 7-2 5h-2l-7 8-1 3-4 2v2h-2v2l-10 5-1 4 4 2 5-1 16-14 7-8 29-29 2-1v-2h2l6-7v-2l4-2 20-20-1-5-2-2z" fill="#254358"/>
<path transform="translate(1427,291)" d="m0 0h1v17h-7l2 5-4-1h-9l-6 5-1 2v16l1 5 3 1 11 1-8 8-8-1-6-7-2-5v-18l4-10 6-5 4-1h11l7 2z" fill="#244258"/>
<path transform="translate(1122,304)" d="m0 0 7 1 1 3h4l1-3 3-1h9l1 2-1 6-14 2-1 4-2 2-1 29-1 1h-7v-45z" fill="#244258"/>
<path transform="translate(580,259)" d="m0 0 5 1 8 6 12 12 1 4-7 8-3 1v2h-2v2l-8 6-6-1 1-4 8-8 4-3-1-7-2-4h-2v-2h-2l-7-9z" fill="#1B3D61"/>
<path transform="translate(519,200)" d="m0 0h5l5 5-1 5-12 12-3 2 1 6 14 14-1 5-6 5-5-2-21-21-2-3 1-4 8-8 8-7zm-1 3-1 3h-2v2h-2l-7 8-7 6-3 5 5 5 4 5 8 7 7 6 3-2-1-5-3-4h-2v-2h-2l-2-4-3-4v-7l4-2 5-4 6-8-1-4-1-1z" fill="#254358"/>
<path transform="translate(1497,350)" d="m0 0h49v8h-51l1-7z" fill="#1B3D60"/>
<path transform="translate(1252,285)" d="m0 0 4 1 1 1v6l-7 2-5 1-2 18-14-2 1-7 7-2 2-10 7-6z" fill="#1B3D60"/>
<path transform="translate(1466,310)" d="m0 0h9l5 5 2 4-1 4h-21l-3-1 1-7 4-4z" fill="#F9CB19"/>
<path transform="translate(1082,311)" d="m0 0h12l5 3 2 3v5l-2 1h-20l-2-1 1-7z" fill="#F9CB19"/>
<path transform="translate(1324,334)" d="m0 0h7v6l-5 7-5 3h-12v-7l10-2 3-3z" fill="#1B3D60"/>
<path transform="translate(1378,327)" d="m0 0 3 1-1 8-4 8-4 4-5 2-8-1-3-2 1-4 13-2 4-4z" fill="#1B3D60"/>
<path transform="translate(1497,350)" d="m0 0h42v1l-36 2v3l29 1v1h-37l1-7z" fill="#254358"/>
<path transform="translate(1252,285)" d="m0 0 4 1 1 1v6l-7 2-4 1-2-3-5 2 2-4 5-4z" fill="#254358"/>
<path transform="translate(1468,305)" d="m0 0 6 2v2l-10 1-6 4-4 3-5-1 1-4 2 1 5-5 4-2 2 1z" fill="#1B3D60"/>
<path transform="translate(1104,336)" d="m0 0h2v6l-9 6-4-1v-5l7-3z" fill="#1C3D5F"/>
<path transform="translate(1011,304)" d="m0 0h10v3l-1 2-12 1-1-3h2v-2z" fill="#1B3D61"/>
<path transform="translate(1324,334)" d="m0 0h7v6l-5 7-4 2v-3l5-6v-2l-4-1z" fill="#254358"/>
<path transform="translate(1231,304)" d="m0 0h6l1 4-1 4h-8l1-7z" fill="#254358"/>
<path transform="translate(1329,338)" d="m0 0 1 4-4 5-4 2v-3z" fill="#234159"/>
</svg>
