<?xml version="1.0" encoding="UTF-8"?>
<svg version="1.1" viewBox="0 0 2000 2000" width="1280" height="1280" xmlns="http://www.w3.org/2000/svg">
<path transform="translate(355,749)" d="m0 0h65l181 1 1 5v241l-7 8-46 46-1 146-146 1-5 3-49 49-2 1h-245l-1-2v-246l52-52 1-147 4-1h40l105-1 50-50zm-176 79v343h343l1-2v-341z" fill="#083A89"/>
<path transform="translate(895,803)" d="m0 0h10l12 1 6 10 17 32 12 22 15 28 7 14h2l12-23 12-22 12-23 10-19 10-18 1-1h21v168l-20 1-2-1-1-122-6 9-18 34-11 20-6 12-7 10-4 4-7 1-5-5-8-13-12-22-14-26-9-16-5-8-1 122-3 1h-18l-2-1z" fill="#0A3D8B"/>
<path transform="translate(1031,1026)" d="m0 0h83l14 3 14 7 7 7 5 10 1 4v28l-4 10-7 9-2 2 10 6 6 5 5 7 3 9v27l-3 11-7 10-8 7-11 5-10 2-75 1-11-1-8-7-3-7v-154zm23 20-1 1v54h59l10-3 6-5 4-9v-24l-4-6-6-5-10-3zm0 73-1 1v55l1 1h37l34-1 10-5 6-7 2-5v-24l-5-8-8-5-4-1z" fill="#0A3D8B"/>
<path transform="translate(390,867)" d="m0 0 4 2 6 7 8 7 74 74-1 5-37 37h-93l-1-1v-77l1-14 8-10 8-7z" fill="#227AAA"/>
<path transform="translate(258 1e3)" d="m0 0h93v92l-39 39-4-1-15-15-8-7-1-3-4-2-4-5-5-5-13-12-29-29v-2l-3-1-7-8 1-4 12-11 7-8 14-14z" fill="#227BAA"/>
<path transform="translate(1765,803)" d="m0 0h11l12 1 13 20 15 22 29 43 8 12 14 20 9 13v-130l1-1h15l7 1v167l-2 2h-17l-6-5-8-12-13-19-11-16-17-25-19-28-11-16-6-8v-2h-2l1 4v126l-4 1h-18l-1-1z" fill="#0C3E8B"/>
<path transform="translate(1230,1024)" d="m0 0h37l13 2 12 6 10 9 7 14 3 12v4h-23l-1-5-3-9-7-8-8-3-9-1h-23l-16 2-6 3-5 5-3 9v14l3 8 5 5 11 4 40 7 21 5 13 7 8 8 4 8 1 4v31l-4 10-6 8-9 7-12 5-10 2-22 1h-17l-16-2-11-4-9-7-8-9-5-11-2-7v-12h22l3 14 5 8 8 6 7 2h43l11-4 5-4 3-7v-23l-4-7-7-4-17-4-40-7-14-4-10-6-7-7-5-10-2-15 1-18 4-10 6-8 9-7 12-5z" fill="#093B8A"/>
<path transform="translate(1385,803)" d="m0 0h21l2 1 1 73h87v-72l1-2h22l1 1v168l-1 1h-21l-1-1-1-74-88-1v75l-2 1h-21l-1-84v-85z" fill="#0C3E8C"/>
<path transform="translate(1086,803)" d="m0 0h118l1 1v18l-1 1h-96l1 7v45l5 1h82l2 2v17l-7 1h-82v57h95l1 7v12l-2 1h-98l-9-1-7-5-3-4-1-6v-153z" fill="#0D3E8C"/>
<path transform="translate(1279,801)" d="m0 0h30l14 2 13 5 11 8 8 11 5 12 3 13v5l-22 1-2-4-2-10-5-10-4-5-9-5-15-2h-22l-13 2-8 4-7 7-6 12-2 11v59l3 15 6 11 7 6 10 4 11 1h19l16-2 10-6 7-9 4-13 1-9 3-1 20 1-1 13-4 14-7 12-6 7-10 7-9 4-9 2-10 1h-33l-15-3-13-7-10-9-7-11-5-13-2-14v-63l3-14 6-13 6-9 9-8 14-7 8-2z" fill="#083C8A"/>
<path transform="translate(1605,803)" d="m0 0h11l7 3 5 8 10 25 22 57 14 37 15 39-2 1h-21l-3-5-14-38-1-1-71-1-1 5-11 30-4 9-1 1h-21l-2-2 10-25 12-31 15-38 22-58 6-14zm7 30-21 56-7 20h57l-2-9-7-19-10-27-7-19-1-2z" fill="#083B8A"/>
<path transform="translate(930,1026)" d="m0 0h11l7 2 6 9 14 36 19 49 23 61 4 9v3h-23l-5-11-10-28-2-4-71-1-3 10-9 25-4 9h-24l3-9 9-23 10-26 17-43 8-21 15-39 3-6zm8 30-13 34-15 40v2h57l-3-10-10-28-9-25-5-13z" fill="#083B8A"/>
<path transform="translate(687,803)" d="m0 0h128l2 1v18l-7 1h-47v149l-1 1h-20l-2-1v-150l-53 1-1-1v-17z" fill="#0C3E8C"/>
<path transform="translate(733,1026)" d="m0 0h21l1 1v149h93l-1 19h-104l-6-4-4-6-1-5v-153z" fill="#083B8A"/>
<path transform="translate(1709,803)" d="m0 0h21l1 1 1 167-1 1-9 1h-12l-2-2v-167z" fill="#10408D"/>
<path transform="translate(838,804)" d="m0 0h23l1 168-7 1h-16l-1-31z" fill="#11448F"/>
<path transform="translate(1086,803)" d="m0 0h118v1l-116 1-1 1v33l1 125-2-1-1-6v-153z" fill="#3385B0"/>
<path transform="translate(353,904)" d="m0 0 1 2-1 2-1 24v44l1 21 1 2-4-1v-77l1-14z" fill="#FEFEFE"/>
<path transform="translate(1230,1024)" d="m0 0h37l13 2-2 2-5-1h-21l-31-1v-1z" fill="#227BAA"/>
<path transform="translate(1252,1100)" d="m0 0 21 3 8 2v1h-10v-2h-9l-11-2z" fill="#237BAA"/>
<path transform="translate(1590,835)" d="m0 0h2l-1 6-3 5-2 5-1-3z" fill="#2479A9"/>
</svg>
